<svg xmlns="http://www.w3.org/2000/svg" xmlns:xlink="http://www.w3.org/1999/xlink" width="500" zoomAndPan="magnify" viewBox="0 0 375 374.999991" height="500" preserveAspectRatio="xMidYMid meet" version="1.2"><g id="c87500e47d"><path style=" stroke:none;fill-rule:nonzero;fill:#f3fdff;fill-opacity:1;" d="M 374.003906 186.003906 C 374.003906 289.246094 290.242188 373.003906 187 373.003906 C 83.761719 373.003906 0 289.246094 0 186.003906 C 0 82.765625 83.761719 -0.996094 187 -0.996094 C 290.242188 -0.996094 374.003906 82.765625 374.003906 186.003906 Z M 14.960938 186.003906 C 14.960938 280.984375 92.019531 358.046875 187 358.046875 C 281.980469 358.046875 359.042969 280.984375 359.042969 186.003906 C 359.042969 91.023438 281.980469 13.960938 187 13.960938 C 92.019531 13.960938 14.960938 91.023438 14.960938 186.003906 Z M 14.960938 186.003906 "/><path style=" stroke:none;fill-rule:evenodd;fill:#f3fdff;fill-opacity:1;" d="M 187 223.402344 C 141.574219 223.402344 104.722656 186.550781 104.722656 141.125 C 104.722656 95.699219 141.574219 58.84375 187 58.84375 C 232.425781 58.84375 269.28125 95.699219 269.28125 141.125 C 269.28125 186.550781 232.425781 223.402344 187 223.402344 Z M 187 208.445312 C 224.167969 208.445312 254.320312 178.289062 254.320312 141.125 C 254.320312 103.957031 224.167969 73.804688 187 73.804688 C 149.835938 73.804688 119.679688 103.957031 119.679688 141.125 C 119.679688 178.289062 149.835938 208.445312 187 208.445312 Z M 187 208.445312 "/><path style=" stroke:none;fill-rule:nonzero;fill:#f3fdff;fill-opacity:1;" d="M 134.640625 268.285156 L 239.363281 268.285156 C 274.035156 268.285156 298.890625 279.972656 314.472656 299.453125 C 317.046875 302.644531 321.796875 303.191406 324.992188 300.542969 C 328.265625 297.972656 328.734375 293.296875 326.160156 290.101562 C 307.695312 267.039062 278.554688 253.324219 239.363281 253.324219 L 134.640625 253.324219 C 95.449219 253.324219 66.308594 267.039062 47.839844 290.101562 C 45.269531 293.296875 45.738281 297.972656 49.011719 300.542969 C 52.203125 303.191406 56.957031 302.644531 59.527344 299.453125 C 75.113281 279.972656 99.96875 268.285156 134.640625 268.285156 Z M 134.640625 268.285156 "/></g></svg>