<svg xmlns="http://www.w3.org/2000/svg" xmlns:xlink="http://www.w3.org/1999/xlink" width="500" zoomAndPan="magnify" viewBox="0 0 375 374.999991" height="500" preserveAspectRatio="xMidYMid meet" version="1.0"><defs><clipPath id="5bc0ab4bab"><path d="M 74.167969 92.75 L 304.933594 92.75 L 304.933594 303.738281 L 74.167969 303.738281 Z M 74.167969 92.75 " clip-rule="nonzero"/></clipPath><clipPath id="e88441c41f"><path d="M 91.417969 92.75 L 287.148438 92.75 C 291.722656 92.75 296.109375 94.570312 299.347656 97.804688 C 302.582031 101.039062 304.398438 105.425781 304.398438 110 L 304.398438 286.488281 C 304.398438 291.0625 302.582031 295.453125 299.347656 298.6875 C 296.109375 301.921875 291.722656 303.738281 287.148438 303.738281 L 91.417969 303.738281 C 86.839844 303.738281 82.453125 301.921875 79.21875 298.6875 C 75.984375 295.453125 74.167969 291.0625 74.167969 286.488281 L 74.167969 110 C 74.167969 105.425781 75.984375 101.039062 79.21875 97.804688 C 82.453125 94.570312 86.839844 92.75 91.417969 92.75 Z M 91.417969 92.75 " clip-rule="nonzero"/></clipPath><clipPath id="cb935029d0"><path d="M 108.066406 118 L 265.773438 118 L 265.773438 317.761719 L 108.066406 317.761719 Z M 108.066406 118 " clip-rule="nonzero"/></clipPath><clipPath id="b0f931a7d1"><path d="M 125.929688 118.328125 L 248.523438 118.328125 C 253.097656 118.328125 257.484375 120.148438 260.71875 123.382812 C 263.953125 126.617188 265.773438 131.003906 265.773438 135.578125 L 265.773438 300.347656 C 265.773438 304.925781 263.953125 309.3125 260.71875 312.546875 C 257.484375 315.78125 253.097656 317.597656 248.523438 317.597656 L 125.929688 317.597656 C 121.355469 317.597656 116.96875 315.78125 113.730469 312.546875 C 110.496094 309.3125 108.679688 304.925781 108.679688 300.347656 L 108.679688 135.578125 C 108.679688 131.003906 110.496094 126.617188 113.730469 123.382812 C 116.96875 120.148438 121.355469 118.328125 125.929688 118.328125 Z M 125.929688 118.328125 " clip-rule="nonzero"/></clipPath><clipPath id="535c9aed86"><path d="M 100.183594 9.847656 L 274.265625 9.847656 L 274.265625 287.96875 L 100.183594 287.96875 Z M 100.183594 9.847656 " clip-rule="nonzero"/></clipPath><clipPath id="d03f4f2e24"><path d="M 187.226562 9.847656 L 274.265625 287.707031 L 100.183594 287.707031 Z M 187.226562 9.847656 " clip-rule="nonzero"/></clipPath><clipPath id="94c9b6d9e4"><path d="M 134 25 L 305 25 L 305 267 L 134 267 Z M 134 25 " clip-rule="nonzero"/></clipPath><clipPath id="24d8dce38e"><path d="M 240.980469 -6.855469 L 368.199219 58.808594 L 260.984375 266.527344 L 133.769531 200.867188 Z M 240.980469 -6.855469 " clip-rule="nonzero"/></clipPath><clipPath id="688756f1c4"><path d="M 304.589844 25.976562 L 261.125 266.261719 L 133.90625 200.601562 Z M 304.589844 25.976562 " clip-rule="nonzero"/></clipPath><clipPath id="0ae3e273e5"><path d="M 70 25 L 241 25 L 241 267 L 70 267 Z M 70 25 " clip-rule="nonzero"/></clipPath><clipPath id="3789843af5"><path d="M 6.800781 58.828125 L 134.003906 -6.855469 L 241.253906 200.84375 L 114.050781 266.527344 Z M 6.800781 58.828125 " clip-rule="nonzero"/></clipPath><clipPath id="53f6b7ad0b"><path d="M 70.402344 25.984375 L 241.117188 200.578125 L 113.914062 266.261719 Z M 70.402344 25.984375 " clip-rule="nonzero"/></clipPath><clipPath id="4fbb92d2b0"><path d="M 48.078125 207.273438 L 326.460938 207.273438 L 326.460938 368.144531 L 48.078125 368.144531 Z M 48.078125 207.273438 " clip-rule="nonzero"/></clipPath><clipPath id="7d91933b7a"><path d="M 140.894531 358.484375 C 155.160156 364.316406 171.382812 368.144531 187.300781 368.144531 C 203.222656 368.144531 218.539062 364.863281 232.65625 359.027344 C 232.957031 358.847656 233.257812 358.847656 233.558594 358.664062 C 286.574219 335.328125 325.625 273.710938 326.375 207.273438 L 48.078125 207.273438 C 48.828125 274.074219 87.277344 335.695312 140.894531 358.484375 Z M 140.894531 358.484375 " clip-rule="nonzero"/></clipPath></defs><g clip-path="url(#5bc0ab4bab)"><g clip-path="url(#e88441c41f)"><path fill="#f08700" d="M 74.167969 92.75 L 304.109375 92.75 L 304.109375 303.738281 L 74.167969 303.738281 Z M 74.167969 92.75 " fill-opacity="1" fill-rule="nonzero"/></g></g><g clip-path="url(#cb935029d0)"><g clip-path="url(#b0f931a7d1)"><path fill="#ffffff" d="M 108.679688 118.328125 L 265.773438 118.328125 L 265.773438 317.761719 L 108.679688 317.761719 Z M 108.679688 118.328125 " fill-opacity="1" fill-rule="nonzero"/></g></g><g clip-path="url(#535c9aed86)"><g clip-path="url(#d03f4f2e24)"><path fill="#108a93" d="M 100.183594 9.847656 L 274.265625 9.847656 L 274.265625 287.96875 L 100.183594 287.96875 Z M 100.183594 9.847656 " fill-opacity="1" fill-rule="nonzero"/></g></g><g clip-path="url(#94c9b6d9e4)"><g clip-path="url(#24d8dce38e)"><g clip-path="url(#688756f1c4)"><path fill="#108a93" d="M 240.980469 -6.855469 L 368.199219 58.808594 L 261.242188 266.03125 L 134.023438 200.371094 Z M 240.980469 -6.855469 " fill-opacity="1" fill-rule="nonzero"/></g></g></g><g clip-path="url(#0ae3e273e5)"><g clip-path="url(#3789843af5)"><g clip-path="url(#53f6b7ad0b)"><path fill="#108a93" d="M 6.800781 58.828125 L 134.003906 -6.855469 L 241 200.347656 L 113.792969 266.03125 Z M 6.800781 58.828125 " fill-opacity="1" fill-rule="nonzero"/></g></g></g><g clip-path="url(#4fbb92d2b0)"><g clip-path="url(#7d91933b7a)"><path fill="#f08700" d="M 48.078125 207.273438 L 326.460938 207.273438 L 326.460938 368.144531 L 48.078125 368.144531 Z M 48.078125 207.273438 " fill-opacity="1" fill-rule="nonzero"/></g></g></svg>