<svg xmlns="http://www.w3.org/2000/svg" xmlns:xlink="http://www.w3.org/1999/xlink" width="500" zoomAndPan="magnify" viewBox="0 0 375 374.999991" height="500" preserveAspectRatio="xMidYMid meet" version="1.2"><defs><clipPath id="20b4176fb1"><path d="M 32 76 L 343.921875 76 L 343.921875 375 L 32 375 Z M 32 76 "/></clipPath></defs><g id="6a06747ff9"><g clip-rule="nonzero" clip-path="url(#20b4176fb1)"><path style=" stroke:none;fill-rule:nonzero;fill:#f3fdff;fill-opacity:1;" d="M 320.757812 375 L 55.8125 375 C 49.378906 375 43.132812 372.316406 38.722656 367.640625 C 34.300781 362.964844 31.960938 356.59375 32.320312 350.164062 L 46.269531 99.117188 C 46.960938 86.640625 57.269531 76.882812 69.757812 76.882812 L 306.808594 76.882812 C 319.300781 76.882812 329.609375 86.640625 330.296875 99.117188 L 344.246094 350.164062 C 344.609375 356.59375 342.269531 362.964844 337.84375 367.640625 C 333.421875 372.316406 327.191406 375 320.757812 375 Z M 69.757812 92.574219 C 65.601562 92.574219 62.148438 95.835938 61.929688 99.980469 L 47.980469 351.023438 C 47.871094 353.207031 48.625 355.277344 50.113281 356.863281 C 51.621094 358.429688 53.628906 359.308594 55.8125 359.308594 L 320.757812 359.308594 C 322.9375 359.308594 324.964844 358.429688 326.453125 356.863281 C 327.945312 355.277344 328.714844 353.207031 328.585938 351.023438 L 314.640625 99.980469 C 314.417969 95.835938 310.96875 92.574219 306.808594 92.574219 Z M 69.757812 92.574219 "/></g><path style=" stroke:none;fill-rule:nonzero;fill:#f3fdff;fill-opacity:1;" d="M 258.890625 140.019531 C 254.5625 140.019531 251.046875 136.507812 251.046875 132.175781 L 251.046875 78.328125 C 251.046875 43.714844 222.898438 15.566406 188.285156 15.566406 C 153.671875 15.566406 125.523438 43.714844 125.523438 78.328125 L 125.523438 132.175781 C 125.523438 136.507812 122.007812 140.019531 117.679688 140.019531 C 113.347656 140.019531 109.832031 136.507812 109.832031 132.175781 L 109.832031 78.328125 C 109.832031 35.066406 145.027344 -0.125 188.285156 -0.125 C 231.542969 -0.125 266.738281 35.066406 266.738281 78.328125 L 266.738281 132.175781 C 266.738281 136.507812 263.222656 140.019531 258.890625 140.019531 Z M 258.890625 140.019531 "/></g></svg>