<svg xmlns="http://www.w3.org/2000/svg" xmlns:xlink="http://www.w3.org/1999/xlink" width="500" zoomAndPan="magnify" viewBox="0 0 375 374.999991" height="500" preserveAspectRatio="xMidYMid meet" version="1.2"><defs><clipPath id="f0e172db47"><path d="M 41.210938 52.535156 L 189.820312 52.535156 L 189.820312 163.765625 L 41.210938 163.765625 Z M 41.210938 52.535156 "/></clipPath><clipPath id="5d6ca0502c"><path d="M 126.148438 153.523438 C 113.398438 140.324219 112.648438 125.550781 108.75 124.351562 C 105.824219 123.375 101.851562 129.75 97.949219 131.550781 C 94.125 133.273438 89.699219 134.476562 85.5 134.925781 C 81.226562 135.300781 76.726562 135.074219 72.601562 134.101562 C 68.398438 133.199219 64.199219 131.476562 60.601562 129.226562 C 56.925781 127.050781 53.476562 124.050781 50.773438 120.824219 C 48.074219 117.523438 45.75 113.625 44.175781 109.648438 C 42.601562 105.675781 41.699219 101.25 41.476562 97.050781 C 41.25 92.773438 41.773438 88.273438 42.976562 84.148438 C 44.101562 80.101562 46.050781 75.976562 48.449219 72.449219 C 50.925781 68.925781 54 65.699219 57.449219 63.148438 C 60.824219 60.601562 64.875 58.5 68.925781 57.148438 C 72.976562 55.800781 77.476562 55.125 81.675781 55.125 C 85.949219 55.125 90.449219 55.949219 94.425781 57.300781 C 98.476562 58.726562 102.449219 60.824219 105.824219 63.449219 C 109.199219 66.074219 112.273438 69.375 114.675781 72.898438 C 117.074219 76.425781 118.949219 80.550781 120 84.675781 C 121.125 88.800781 121.574219 93.300781 121.351562 97.574219 C 121.050781 101.773438 120.074219 106.199219 118.5 110.175781 C 116.851562 114.148438 114.523438 117.976562 111.75 121.199219 C 108.976562 124.425781 105.449219 127.351562 101.773438 129.523438 C 98.175781 131.699219 93.898438 133.351562 89.773438 134.25 C 85.574219 135.148438 81.074219 135.300781 76.800781 134.851562 C 72.601562 134.324219 68.25 133.125 64.351562 131.324219 C 60.523438 129.449219 56.773438 126.898438 53.699219 123.976562 C 50.625 120.976562 47.925781 117.375 45.976562 113.625 C 44.023438 109.800781 42.601562 105.523438 41.925781 101.324219 C 41.25 97.125 41.324219 92.550781 42 88.351562 C 42.75 84.148438 44.175781 79.875 46.199219 76.125 C 48.226562 72.375 49.648438 68.925781 54.148438 65.925781 C 62.625 60.148438 84.976562 52.351562 99.375 52.800781 C 112.800781 53.25 126.074219 60.449219 137.773438 66.675781 C 149.101562 72.675781 160.425781 81.976562 168.601562 89.101562 C 174.675781 94.5 180.148438 99.976562 183.375 104.550781 C 185.476562 107.550781 186.449219 109.875 187.5 112.726562 C 188.550781 115.574219 189.226562 118.648438 189.523438 121.648438 C 189.824219 124.648438 189.824219 127.800781 189.375 130.800781 C 189 133.800781 188.175781 136.800781 187.050781 139.648438 C 185.925781 142.425781 184.425781 145.199219 182.625 147.675781 C 180.898438 150.148438 178.800781 152.398438 176.476562 154.425781 C 174.148438 156.375 171.523438 158.101562 168.824219 159.449219 C 166.125 160.800781 163.199219 161.851562 160.273438 162.523438 C 157.273438 163.199219 154.199219 163.574219 151.125 163.5 C 148.125 163.425781 145.050781 163.050781 142.125 162.226562 C 139.199219 161.476562 136.273438 160.273438 133.574219 158.851562 C 130.949219 157.425781 126.148438 153.523438 126.148438 153.523438 "/></clipPath><clipPath id="dd77da0186"><path d="M 87.125 59.347656 L 160.546875 59.347656 L 160.546875 134.652344 L 87.125 134.652344 Z M 87.125 59.347656 "/></clipPath><clipPath id="3c25d64ade"><path d="M 160.5 85.875 C 160.574219 109.5 157.800781 115.574219 154.199219 120.148438 C 150.675781 124.726562 145.425781 128.851562 140.101562 131.25 C 134.773438 133.574219 128.25 134.773438 122.476562 134.476562 C 116.625 134.101562 110.25 132.148438 105.300781 129.074219 C 100.351562 126.074219 95.625 121.425781 92.625 116.398438 C 89.625 111.449219 87.601562 105.074219 87.300781 99.300781 C 86.925781 93.449219 88.125 86.925781 90.523438 81.601562 C 92.925781 76.351562 97.050781 71.101562 101.550781 67.5 C 106.125 63.898438 112.273438 61.199219 117.976562 60.148438 C 123.675781 59.101562 130.351562 59.476562 135.898438 61.199219 C 141.449219 62.925781 151.199219 70.5 151.199219 70.5 "/></clipPath><clipPath id="133988ce2e"><path d="M 75.425781 52 L 148.847656 52 L 148.847656 127.300781 L 75.425781 127.300781 Z M 75.425781 52 "/></clipPath><clipPath id="21cc3d810a"><path d="M 148.800781 78.523438 C 148.875 102.148438 146.101562 108.226562 142.574219 112.800781 C 138.976562 117.375 133.726562 121.5 128.398438 123.824219 C 123.148438 126.226562 116.550781 127.425781 110.773438 127.125 C 105 126.75 98.625 124.726562 93.601562 121.726562 C 88.648438 118.726562 83.925781 114 80.925781 109.050781 C 77.925781 104.101562 75.976562 97.726562 75.601562 91.949219 C 75.226562 86.101562 76.425781 79.574219 78.824219 74.25 C 81.226562 69 85.351562 63.75 89.925781 60.148438 C 94.5 56.550781 100.574219 53.851562 106.273438 52.800781 C 111.976562 51.75 118.648438 52.125 124.199219 53.851562 C 129.75 55.574219 139.574219 63.148438 139.574219 63.148438 "/></clipPath><clipPath id="c6551edc25"><path d="M 47.523438 115.371094 L 121 115.371094 L 121 190.675781 L 47.523438 190.675781 Z M 47.523438 115.371094 "/></clipPath><clipPath id="146733c77b"><path d="M 120.976562 141.898438 C 120.976562 165.523438 118.273438 171.601562 114.675781 176.175781 C 111.074219 180.75 105.824219 184.875 100.5 187.273438 C 95.25 189.675781 88.648438 190.875 82.875 190.5 C 77.101562 190.125 70.726562 188.175781 65.699219 185.175781 C 60.75 182.175781 56.023438 177.449219 53.023438 172.5 C 50.023438 167.476562 48.074219 161.101562 47.699219 155.324219 C 47.324219 149.550781 48.523438 142.949219 50.925781 137.699219 C 53.324219 132.375 57.449219 127.125 62.023438 123.523438 C 66.601562 120 72.675781 117.226562 78.375 116.175781 C 84.074219 115.125 90.75 115.574219 96.300781 117.300781 C 101.851562 119.023438 111.675781 126.523438 111.675781 126.523438 "/></clipPath><clipPath id="a03b611fd8"><path d="M 39.574219 110 L 112.996094 110 L 112.996094 185.277344 L 39.574219 185.277344 Z M 39.574219 110 "/></clipPath><clipPath id="8b497b934a"><path d="M 112.949219 136.5 C 113.023438 160.125 110.25 166.199219 106.648438 170.773438 C 103.125 175.351562 97.875 179.476562 92.550781 181.875 C 87.226562 184.273438 80.699219 185.476562 74.925781 185.101562 C 69.074219 184.726562 62.699219 182.773438 57.75 179.773438 C 52.800781 176.773438 48.074219 172.050781 45.074219 167.101562 C 42.074219 162.074219 40.050781 155.773438 39.75 149.925781 C 39.375 144.148438 40.574219 137.550781 42.976562 132.300781 C 45.375 126.976562 49.5 121.726562 54.074219 118.125 C 58.648438 114.601562 64.726562 111.824219 70.425781 110.773438 C 76.125 109.726562 82.800781 110.175781 88.351562 111.898438 C 93.898438 113.625 103.648438 121.199219 103.648438 121.199219 "/></clipPath><clipPath id="d5b57862c4"><path d="M 35.320312 96.746094 L 110.554688 96.746094 L 110.554688 171.980469 L 35.320312 171.980469 Z M 35.320312 96.746094 "/></clipPath><clipPath id="dd9c533b98"><path d="M 72.898438 171.898438 C 57.148438 168.675781 53.398438 166.648438 50.175781 164.25 C 47.023438 161.851562 44.101562 158.773438 41.851562 155.476562 C 39.601562 152.175781 37.800781 148.273438 36.75 144.449219 C 35.699219 140.625 35.25 136.351562 35.476562 132.375 C 35.625 128.398438 36.601562 124.199219 38.023438 120.523438 C 39.523438 116.773438 41.699219 113.175781 44.324219 110.101562 C 46.875 107.101562 50.101562 104.324219 53.550781 102.300781 C 57 100.199219 60.898438 98.625 64.800781 97.800781 C 68.699219 96.898438 72.976562 96.675781 76.949219 97.125 C 80.925781 97.574219 85.050781 98.699219 88.648438 100.351562 C 92.25 102.074219 95.773438 104.398438 98.699219 107.175781 C 101.625 109.949219 104.175781 113.324219 106.050781 116.851562 C 107.925781 120.375 109.273438 124.425781 109.875 128.324219 C 110.550781 132.300781 110.550781 136.5 109.875 140.476562 C 109.273438 144.449219 107.925781 148.425781 106.050781 151.949219 C 104.175781 155.476562 101.550781 158.925781 98.699219 161.625 C 95.773438 164.398438 92.25 166.800781 88.648438 168.449219 C 84.976562 170.101562 80.925781 171.226562 76.949219 171.675781 C 72.976562 172.125 68.699219 171.898438 64.800781 171 C 60.898438 170.175781 57 168.601562 53.550781 166.574219 C 50.101562 164.476562 46.875 161.699219 44.324219 158.699219 C 41.699219 155.625 39.523438 151.949219 38.023438 148.273438 C 36.601562 144.601562 35.625 140.398438 35.476562 136.425781 C 35.25 132.449219 35.699219 128.175781 36.75 124.351562 C 37.800781 120.523438 39.601562 116.625 41.851562 113.324219 C 44.101562 110.023438 47.023438 106.949219 50.175781 104.550781 C 53.398438 102.148438 57.148438 100.125 60.898438 98.851562 C 64.726562 97.574219 69.148438 96.976562 72.898438 96.898438 C 76.125 96.824219 78.976562 97.273438 81.898438 97.949219 C 84.75 98.625 87.675781 99.75 90.375 101.101562 C 93 102.523438 95.550781 104.25 97.800781 106.199219 C 100.050781 108.226562 102.148438 110.550781 103.800781 112.949219 C 105.523438 115.425781 107.023438 118.199219 108.074219 120.976562 C 109.125 123.75 109.875 126.75 110.25 129.75 C 110.625 132.675781 110.625 135.824219 110.324219 138.75 C 109.949219 141.75 109.199219 144.75 108.148438 147.601562 C 107.101562 150.375 105.675781 153.148438 104.023438 155.550781 C 102.300781 158.023438 100.273438 160.351562 98.023438 162.375 C 95.773438 164.398438 93.226562 166.125 90.601562 167.550781 C 87.976562 168.976562 85.050781 170.023438 82.199219 170.773438 C 79.273438 171.523438 73.199219 171.898438 73.199219 171.898438 "/></clipPath><clipPath id="7e837a2bb1"><path d="M 30.875 85.371094 L 104.609375 85.371094 L 104.609375 160.675781 L 30.875 160.675781 Z M 30.875 85.371094 "/></clipPath><clipPath id="1d1d16c674"><path d="M 104.324219 111.898438 C 104.324219 135.523438 101.625 141.601562 98.023438 146.175781 C 94.425781 150.75 89.175781 154.875 83.851562 157.273438 C 78.601562 159.675781 72 160.875 66.226562 160.5 C 60.449219 160.125 54.074219 158.175781 49.050781 155.175781 C 44.101562 152.175781 39.375 147.449219 36.375 142.425781 C 33.375 137.476562 31.425781 131.101562 31.050781 125.324219 C 30.675781 119.550781 31.875 112.949219 34.273438 107.625 C 36.675781 102.375 40.800781 97.125 45.375 93.523438 C 49.949219 89.925781 56.023438 87.226562 61.726562 86.175781 C 67.425781 85.125 74.101562 85.5 79.648438 87.226562 C 85.199219 88.949219 95.023438 96.523438 95.023438 96.523438 "/></clipPath><clipPath id="7de5350aa3"><path d="M 31.472656 105.472656 L 105 105.472656 L 105 180.777344 L 31.472656 180.777344 Z M 31.472656 105.472656 "/></clipPath><clipPath id="d21a628844"><path d="M 104.925781 132 C 104.925781 155.625 102.226562 161.699219 98.625 166.273438 C 95.023438 170.851562 89.773438 174.976562 84.523438 177.375 C 79.199219 179.773438 72.601562 180.976562 66.824219 180.601562 C 61.050781 180.226562 54.675781 178.273438 49.726562 175.273438 C 44.699219 172.273438 39.976562 167.550781 36.976562 162.523438 C 33.976562 157.574219 32.023438 151.199219 31.648438 145.425781 C 31.351562 139.648438 32.550781 133.050781 34.875 127.800781 C 37.273438 122.476562 41.398438 117.226562 45.976562 113.625 C 50.550781 110.023438 56.625 107.324219 62.324219 106.273438 C 68.023438 105.226562 74.699219 105.601562 80.25 107.324219 C 85.800781 109.125 95.625 116.625 95.625 116.625 "/></clipPath><clipPath id="4cd3cd682d"><path d="M 31.71875 119.003906 L 106.953125 119.003906 L 106.953125 194.554688 L 31.71875 194.554688 Z M 31.71875 119.003906 "/></clipPath><clipPath id="8882896271"><path d="M 106.949219 156.898438 C 103.648438 172.648438 101.699219 176.398438 99.300781 179.625 C 96.824219 182.773438 93.75 185.699219 90.449219 187.949219 C 87.148438 190.199219 83.25 192 79.425781 193.050781 C 75.601562 194.101562 71.324219 194.550781 67.351562 194.324219 C 63.375 194.101562 59.25 193.199219 55.5 191.699219 C 51.824219 190.273438 48.148438 188.023438 45.148438 185.476562 C 42.074219 182.925781 39.300781 179.625 37.273438 176.25 C 35.175781 172.800781 33.601562 168.824219 32.773438 164.925781 C 31.949219 161.023438 31.648438 156.824219 32.101562 152.851562 C 32.550781 148.875 33.675781 144.75 35.398438 141.148438 C 37.050781 137.550781 39.449219 134.023438 42.148438 131.101562 C 44.925781 128.175781 48.300781 125.625 51.824219 123.75 C 55.351562 121.875 59.398438 120.523438 63.375 119.851562 C 67.273438 119.25 71.550781 119.25 75.449219 119.851562 C 79.425781 120.523438 83.476562 121.875 87 123.75 C 90.523438 125.625 93.898438 128.175781 96.675781 131.101562 C 99.375 134.023438 101.773438 137.550781 103.425781 141.148438 C 105.148438 144.75 106.273438 148.875 106.726562 152.851562 C 107.101562 156.824219 106.875 161.101562 106.050781 164.925781 C 105.148438 168.824219 103.574219 172.800781 101.550781 176.25 C 99.449219 179.625 96.75 182.925781 93.675781 185.476562 C 90.601562 188.101562 87 190.273438 83.25 191.773438 C 79.574219 193.199219 75.449219 194.101562 71.398438 194.324219 C 67.425781 194.550781 63.226562 194.101562 59.324219 193.050781 C 55.5 191.925781 51.675781 190.199219 48.375 187.949219 C 45.074219 185.699219 41.925781 182.773438 39.523438 179.550781 C 37.125 176.398438 35.101562 172.648438 33.824219 168.824219 C 32.550781 165.074219 31.949219 160.574219 31.875 156.898438 C 31.800781 153.675781 32.25 150.824219 32.925781 147.898438 C 33.675781 144.976562 34.726562 142.125 36.148438 139.425781 C 37.5 136.800781 39.226562 134.25 41.25 132 C 43.199219 129.75 45.523438 127.648438 48 125.925781 C 50.398438 124.273438 53.175781 122.773438 55.949219 121.726562 C 58.726562 120.675781 61.800781 119.925781 64.726562 119.550781 C 67.726562 119.175781 70.800781 119.175781 73.800781 119.476562 C 76.726562 119.851562 79.800781 120.601562 82.574219 121.648438 C 85.351562 122.699219 88.125 124.125 90.601562 125.773438 C 93.074219 127.5 95.398438 129.523438 97.351562 131.773438 C 99.375 134.023438 101.175781 136.574219 102.523438 139.199219 C 103.949219 141.824219 105.074219 144.75 105.824219 147.601562 C 106.5 150.523438 106.949219 156.601562 106.949219 156.601562 "/></clipPath><clipPath id="8fa88185ec"><path d="M 38.226562 133.042969 L 113.707031 133.042969 L 113.707031 208.523438 L 38.226562 208.523438 Z M 38.226562 133.042969 "/></clipPath><clipPath id="bf7977bc39"><path d="M 76.125 133.199219 C 91.875 136.425781 95.625 138.375 98.773438 140.851562 C 102 143.25 104.925781 146.324219 107.175781 149.625 C 109.351562 152.925781 111.148438 156.824219 112.199219 160.648438 C 113.324219 164.476562 113.773438 168.75 113.550781 172.726562 C 113.324219 176.699219 112.425781 180.824219 110.925781 184.574219 C 109.425781 188.25 107.25 191.925781 104.699219 194.925781 C 102.074219 198 98.851562 200.773438 95.398438 202.800781 C 92.023438 204.898438 88.050781 206.476562 84.148438 207.300781 C 80.25 208.199219 75.976562 208.425781 72 207.976562 C 68.101562 207.523438 63.976562 206.398438 60.375 204.75 C 56.699219 203.023438 53.175781 200.625 50.324219 197.925781 C 47.398438 195.148438 44.851562 191.773438 42.976562 188.25 C 41.101562 184.726562 39.75 180.675781 39.074219 176.699219 C 38.398438 172.800781 38.398438 168.523438 39.074219 164.625 C 39.75 160.648438 41.101562 156.601562 42.976562 153.074219 C 44.851562 149.550781 47.398438 146.175781 50.324219 143.476562 C 53.175781 140.699219 56.699219 138.300781 60.375 136.648438 C 63.976562 134.925781 68.101562 133.800781 72.074219 133.351562 C 76.050781 132.976562 80.25 133.199219 84.148438 134.023438 C 88.050781 134.925781 92.023438 136.5 95.398438 138.523438 C 98.851562 140.625 102.074219 143.324219 104.699219 146.398438 C 107.25 149.476562 109.5 153.074219 110.925781 156.824219 C 112.425781 160.5 113.324219 164.699219 113.550781 168.675781 C 113.773438 172.648438 113.324219 176.851562 112.199219 180.75 C 111.148438 184.574219 109.351562 188.398438 107.101562 191.699219 C 104.925781 195 101.925781 198.148438 98.773438 200.550781 C 95.625 202.949219 91.875 204.976562 88.050781 206.25 C 84.300781 207.523438 79.800781 208.125 76.125 208.199219 C 72.898438 208.273438 70.050781 207.824219 67.125 207.148438 C 64.199219 206.398438 61.273438 205.351562 58.648438 203.925781 C 56.023438 202.574219 53.398438 200.851562 51.148438 198.824219 C 48.976562 196.875 46.875 194.550781 45.148438 192.074219 C 43.425781 189.675781 42 186.898438 40.949219 184.125 C 39.824219 181.351562 39.074219 178.273438 38.699219 175.351562 C 38.324219 172.351562 38.324219 169.273438 38.699219 166.273438 C 39.074219 163.351562 39.75 160.273438 40.800781 157.5 C 41.851562 154.726562 43.273438 151.949219 45 149.476562 C 46.726562 147 48.75 144.675781 51 142.726562 C 53.175781 140.699219 55.726562 138.898438 58.425781 137.550781 C 61.050781 136.125 63.898438 135 66.824219 134.324219 C 69.75 133.574219 75.824219 133.199219 75.824219 133.199219 "/></clipPath><clipPath id="527edea25e"><path d="M 45.597656 145.648438 L 120.902344 145.648438 L 120.902344 220.953125 L 45.597656 220.953125 Z M 45.597656 145.648438 "/></clipPath><clipPath id="cf11b09fc6"><path d="M 109.875 156.898438 C 118.726562 170.324219 120 174.375 120.523438 178.351562 C 121.050781 182.324219 120.976562 186.523438 120.226562 190.5 C 119.476562 194.398438 117.976562 198.375 116.023438 201.898438 C 114.074219 205.351562 111.375 208.648438 108.375 211.351562 C 105.449219 213.976562 101.851562 216.300781 98.175781 217.875 C 94.5 219.449219 90.375 220.5 86.398438 220.800781 C 82.425781 221.101562 78.148438 220.800781 74.324219 219.824219 C 70.425781 218.851562 66.523438 217.199219 63.148438 215.023438 C 59.773438 212.851562 56.625 210 54.148438 206.925781 C 51.601562 203.773438 49.5 200.101562 48.148438 196.351562 C 46.800781 192.601562 45.976562 188.398438 45.898438 184.425781 C 45.75 180.449219 46.351562 176.25 47.476562 172.425781 C 48.675781 168.601562 50.550781 164.773438 52.875 161.550781 C 55.199219 158.25 58.273438 155.25 61.5 152.925781 C 64.726562 150.601562 68.550781 148.726562 72.375 147.523438 C 76.199219 146.398438 80.398438 145.800781 84.375 145.949219 C 88.351562 146.023438 92.550781 146.851562 96.300781 148.199219 C 100.050781 149.550781 103.726562 151.648438 106.875 154.199219 C 109.949219 156.675781 112.800781 159.824219 114.976562 163.199219 C 117.148438 166.574219 118.800781 170.476562 119.773438 174.375 C 120.75 178.273438 121.050781 182.476562 120.75 186.449219 C 120.449219 190.425781 119.398438 194.550781 117.824219 198.226562 C 116.25 201.898438 113.925781 205.5 111.300781 208.5 C 108.601562 211.425781 105.300781 214.125 101.851562 216.074219 C 98.324219 218.023438 94.351562 219.523438 90.449219 220.273438 C 86.476562 221.023438 82.273438 221.101562 78.300781 220.574219 C 74.324219 220.050781 70.273438 218.773438 66.675781 216.976562 C 63.148438 215.25 59.550781 212.476562 56.851562 209.925781 C 54.523438 207.75 52.800781 205.425781 51.226562 202.875 C 49.648438 200.324219 48.375 197.476562 47.476562 194.625 C 46.574219 191.773438 45.976562 188.699219 45.75 185.699219 C 45.601562 182.773438 45.75 179.625 46.273438 176.699219 C 46.800781 173.773438 47.699219 170.773438 48.898438 168.074219 C 50.175781 165.300781 51.75 162.675781 53.550781 160.273438 C 55.425781 157.949219 57.601562 155.699219 59.925781 153.898438 C 62.25 152.023438 64.875 150.375 67.648438 149.175781 C 70.351562 147.898438 73.273438 146.925781 76.273438 146.398438 C 79.199219 145.875 82.273438 145.648438 85.273438 145.800781 C 88.273438 145.949219 91.351562 146.550781 94.199219 147.375 C 97.050781 148.273438 99.898438 149.550781 102.449219 151.050781 C 105 152.625 109.574219 156.601562 109.574219 156.601562 "/></clipPath><clipPath id="2ae34f3dd3"><path d="M 58 161.046875 L 131.609375 161.046875 L 131.609375 236.351562 L 58 236.351562 Z M 58 161.046875 "/></clipPath><clipPath id="f7d1473266"><path d="M 131.324219 187.574219 C 131.324219 211.199219 128.625 217.273438 125.023438 221.851562 C 121.425781 226.425781 116.175781 230.550781 110.925781 232.949219 C 105.601562 235.273438 99.074219 236.476562 93.226562 236.175781 C 87.449219 235.800781 81.074219 233.851562 76.125 230.851562 C 71.175781 227.773438 66.449219 223.125 63.449219 218.101562 C 60.449219 213.148438 58.425781 206.773438 58.050781 201 C 57.75 195.148438 58.949219 188.625 61.351562 183.300781 C 63.675781 178.050781 67.800781 172.800781 72.375 169.199219 C 76.949219 165.601562 83.023438 162.898438 88.726562 161.851562 C 94.5 160.800781 101.101562 161.175781 106.648438 162.898438 C 112.199219 164.625 122.023438 172.199219 122.023438 172.199219 "/></clipPath><clipPath id="9587b40073"><path d="M 81.050781 190.222656 L 154.785156 190.222656 L 154.785156 265.527344 L 81.050781 265.527344 Z M 81.050781 190.222656 "/></clipPath><clipPath id="d471ad467f"><path d="M 154.5 216.75 C 154.5 240.375 151.800781 246.523438 148.199219 251.023438 C 144.601562 255.601562 139.351562 259.726562 134.101562 262.125 C 128.773438 264.523438 122.25 265.726562 116.398438 265.351562 C 110.625 265.050781 104.25 263.023438 99.300781 260.023438 C 94.351562 257.023438 89.625 252.300781 86.625 247.351562 C 83.625 242.324219 81.601562 236.023438 81.226562 230.175781 C 80.925781 224.398438 82.125 217.800781 84.523438 212.550781 C 86.851562 207.226562 90.976562 201.976562 95.550781 198.375 C 100.125 194.851562 106.199219 192.074219 111.976562 191.023438 C 117.675781 189.976562 124.273438 190.425781 129.824219 192.148438 C 135.375 193.875 145.199219 201.449219 145.199219 201.449219 "/></clipPath><clipPath id="2546f7d037"><path d="M 91.121094 147.296875 L 166.355469 147.296875 L 166.355469 222.53125 L 91.121094 222.53125 Z M 91.121094 147.296875 "/></clipPath><clipPath id="0f912d8848"><path d="M 91.273438 184.875 C 94.5 169.125 96.449219 165.375 98.925781 162.148438 C 101.324219 159 104.398438 156.074219 107.699219 153.824219 C 111 151.574219 114.898438 149.773438 118.726562 148.726562 C 122.550781 147.675781 126.824219 147.226562 130.800781 147.449219 C 134.773438 147.675781 138.898438 148.574219 142.648438 150 C 146.324219 151.5 150 153.675781 153.074219 156.300781 C 156.074219 158.851562 158.851562 162.148438 160.875 165.523438 C 162.976562 168.976562 164.550781 172.949219 165.375 176.851562 C 166.273438 180.75 166.5 184.949219 166.050781 188.925781 C 165.601562 192.898438 164.476562 197.023438 162.824219 200.625 C 161.101562 204.226562 158.699219 207.75 156 210.675781 C 153.226562 213.601562 149.851562 216.148438 146.324219 218.023438 C 142.800781 219.898438 138.75 221.25 134.851562 221.925781 C 130.875 222.523438 126.601562 222.523438 122.699219 221.925781 C 118.726562 221.25 114.675781 219.898438 111.148438 218.023438 C 107.625 216.148438 104.25 213.601562 101.550781 210.675781 C 98.773438 207.75 96.375 204.226562 94.726562 200.625 C 93 197.023438 91.875 192.898438 91.5 188.925781 C 91.050781 184.949219 91.273438 180.675781 92.101562 176.773438 C 93 172.875 94.574219 168.976562 96.601562 165.523438 C 98.699219 162.148438 101.398438 158.851562 104.476562 156.300781 C 107.550781 153.675781 111.148438 151.5 114.898438 150 C 118.574219 148.574219 122.773438 147.675781 126.75 147.449219 C 130.726562 147.226562 134.925781 147.675781 138.824219 148.726562 C 142.648438 149.773438 146.476562 151.574219 149.851562 153.824219 C 153.148438 156.074219 156.226562 159 158.625 162.148438 C 161.023438 165.375 163.050781 169.125 164.324219 172.875 C 165.601562 176.699219 166.199219 181.199219 166.273438 184.875 C 166.351562 188.101562 165.898438 190.949219 165.226562 193.875 C 164.476562 196.800781 163.425781 199.648438 162 202.351562 C 160.648438 204.976562 158.925781 207.523438 156.898438 209.773438 C 154.949219 212.023438 152.625 214.125 150.148438 215.773438 C 147.75 217.5 144.976562 219 142.199219 220.050781 C 139.425781 221.101562 136.425781 221.851562 133.425781 222.226562 C 130.425781 222.601562 127.351562 222.601562 124.351562 222.300781 C 121.425781 221.925781 118.425781 221.175781 115.574219 220.125 C 112.800781 219.074219 110.023438 217.648438 107.550781 216 C 105.074219 214.273438 102.75 212.25 100.800781 210 C 98.773438 207.75 96.976562 205.199219 95.625 202.574219 C 94.199219 199.949219 93.074219 197.023438 92.398438 194.175781 C 91.648438 191.25 91.273438 185.175781 91.273438 185.175781 "/></clipPath><clipPath id="3c6881b429"><path d="M 91.175781 141.246094 L 164.597656 141.246094 L 164.597656 216.550781 L 91.175781 216.550781 Z M 91.175781 141.246094 "/></clipPath><clipPath id="d08f042ca3"><path d="M 164.550781 167.773438 C 164.625 191.398438 161.851562 197.476562 158.25 202.050781 C 154.726562 206.625 149.476562 210.75 144.148438 213.148438 C 138.824219 215.550781 132.300781 216.75 126.523438 216.375 C 120.675781 216 114.300781 214.050781 109.351562 211.050781 C 104.398438 208.050781 99.675781 203.324219 96.675781 198.375 C 93.675781 193.351562 91.648438 186.976562 91.351562 181.199219 C 90.976562 175.425781 92.175781 168.824219 94.574219 163.574219 C 96.976562 158.25 101.023438 153 105.601562 149.398438 C 110.175781 145.875 116.324219 143.101562 122.023438 142.050781 C 127.726562 141 134.398438 141.449219 139.949219 143.175781 C 145.5 144.898438 155.25 152.398438 155.25 152.398438 "/></clipPath><clipPath id="1c65bf586e"><path d="M 103 104 L 263 104 L 263 274.398438 L 103 274.398438 Z M 103 104 "/></clipPath><clipPath id="370d859830"><path d="M 103.199219 184.050781 C 103.648438 171.824219 104.398438 168.75 105.523438 165.898438 C 106.648438 163.125 108.074219 160.273438 109.875 157.800781 C 111.601562 155.324219 113.699219 152.925781 115.949219 150.898438 C 118.273438 148.949219 120.898438 147.148438 123.601562 145.726562 C 126.300781 144.300781 129.226562 143.25 132.226562 142.5 C 135.148438 141.824219 138.300781 141.449219 141.375 141.449219 C 144.449219 141.449219 147.523438 141.824219 150.523438 142.574219 C 153.449219 143.324219 156.523438 144.523438 159.074219 145.875 C 161.476562 147.148438 163.949219 150.675781 165.601562 150.449219 C 166.875 150.226562 168.449219 146.476562 168.449219 146.398438 C 168.523438 146.324219 171 144.226562 172.199219 143.175781 C 173.476562 142.125 175.949219 139.949219 175.949219 139.949219 C 176.023438 139.875 179.476562 138.824219 180.226562 137.773438 C 180.824219 136.949219 180.300781 135.449219 180.601562 134.476562 C 180.824219 133.726562 181.351562 133.125 181.574219 132.449219 C 181.800781 131.699219 181.726562 131.023438 182.023438 130.199219 C 182.550781 129.074219 183.675781 127.726562 184.425781 126.375 C 185.101562 125.023438 185.625 123.300781 186.300781 122.25 C 186.824219 121.5 187.425781 121.199219 187.875 120.601562 C 188.398438 120 188.550781 119.324219 189.074219 118.648438 C 189.898438 117.75 191.476562 116.773438 192.523438 115.726562 C 193.648438 114.75 194.699219 113.25 195.675781 112.5 C 196.351562 111.976562 197.101562 111.824219 197.699219 111.449219 C 198.300781 111 198.675781 110.398438 199.425781 109.949219 C 200.476562 109.351562 202.273438 108.898438 203.625 108.300781 C 205.050781 107.699219 206.476562 106.574219 207.675781 106.199219 C 208.5 105.898438 209.175781 106.050781 209.925781 105.824219 C 210.675781 105.675781 211.199219 105.226562 212.023438 105 C 213.226562 104.773438 215.023438 104.925781 216.523438 104.773438 C 218.023438 104.625 219.824219 104.101562 221.023438 104.101562 C 221.925781 104.101562 222.523438 104.398438 223.273438 104.476562 C 224.023438 104.476562 224.699219 104.25 225.523438 104.324219 C 226.800781 104.476562 228.449219 105.226562 229.875 105.601562 C 231.375 105.898438 233.175781 105.898438 234.375 106.351562 C 235.199219 106.648438 235.648438 107.101562 236.398438 107.398438 C 237.074219 107.699219 237.75 107.625 238.574219 108 C 239.699219 108.523438 241.050781 109.800781 242.324219 110.550781 C 243.601562 111.375 245.324219 111.976562 246.300781 112.726562 C 246.976562 113.25 247.273438 113.925781 247.875 114.375 C 248.398438 114.898438 249.074219 115.050781 249.75 115.648438 C 250.648438 116.550781 251.476562 118.125 252.449219 119.324219 C 253.425781 120.449219 255.601562 122.476562 255.523438 122.550781 C 255.523438 122.625 254.476562 121.800781 254.398438 121.875 C 254.25 122.101562 256.800781 124.425781 257.851562 126.449219 C 259.5 129.601562 261.449219 134.925781 262.125 139.351562 C 262.800781 143.699219 262.800781 148.5 262.050781 152.851562 C 261.300781 157.273438 259.5 162.226562 257.699219 165.675781 C 256.199219 168.375 253.875 169.425781 252.601562 172.273438 C 250.726562 176.324219 251.773438 184.5 249.148438 188.398438 C 246.898438 191.851562 240.976562 191.925781 238.949219 195.449219 C 236.476562 199.875 239.398438 207 237.75 214.199219 C 235.273438 224.851562 230.925781 242.550781 221.925781 252.449219 C 212.476562 262.949219 194.101562 274.648438 181.050781 274.351562 C 168.675781 274.050781 154.574219 262.726562 145.425781 253.199219 C 136.273438 243.75 132 225.375 125.925781 217.574219 C 122.324219 213.074219 118.648438 211.125 115.726562 208.125 C 113.324219 205.726562 111.375 203.699219 109.648438 201.226562 C 107.925781 198.675781 106.5 195.898438 105.375 193.050781 C 104.324219 190.199219 103.199219 184.050781 103.199219 184.050781 M 255.523438 122.550781 C 255.523438 122.625 255.523438 122.625 255.523438 122.625 C 255.523438 122.625 255.523438 122.550781 255.523438 122.550781 "/></clipPath><clipPath id="b1df31f594"><path d="M 183.199219 108.171875 L 256.933594 108.171875 L 256.933594 183.476562 L 183.199219 183.476562 Z M 183.199219 108.171875 "/></clipPath><clipPath id="f92ba518a5"><path d="M 256.648438 134.699219 C 256.648438 158.398438 253.949219 164.476562 250.351562 169.050781 C 246.75 173.625 241.5 177.675781 236.25 180.074219 C 230.925781 182.476562 224.324219 183.675781 218.550781 183.300781 C 212.773438 183 206.398438 180.976562 201.449219 177.976562 C 196.425781 174.976562 191.773438 170.25 188.699219 165.300781 C 185.699219 160.351562 183.75 153.976562 183.375 148.125 C 183.074219 142.351562 184.273438 135.824219 186.601562 130.5 C 189 125.175781 193.125 119.925781 197.699219 116.398438 C 202.273438 112.800781 208.351562 110.023438 214.050781 108.976562 C 219.824219 107.925781 226.425781 108.375 231.976562 110.101562 C 237.523438 111.824219 247.351562 119.398438 247.351562 119.398438 "/></clipPath><clipPath id="5760532e20"><path d="M 201 75 L 274.394531 75 L 274.394531 150.25 L 201 150.25 Z M 201 75 "/></clipPath><clipPath id="da81d0e2c9"><path d="M 274.351562 101.476562 C 274.425781 125.101562 271.648438 131.175781 268.125 135.75 C 264.523438 140.324219 259.273438 144.449219 253.949219 146.851562 C 248.699219 149.25 242.101562 150.449219 236.324219 150.074219 C 230.550781 149.699219 224.175781 147.75 219.148438 144.75 C 214.199219 141.75 209.476562 137.023438 206.476562 132.074219 C 203.476562 127.050781 201.523438 120.75 201.148438 114.898438 C 200.773438 109.125 201.976562 102.523438 204.375 97.273438 C 206.773438 91.949219 210.898438 86.699219 215.476562 83.101562 C 220.050781 79.574219 226.125 76.800781 231.824219 75.75 C 237.523438 74.699219 244.199219 75.148438 249.75 76.875 C 255.300781 78.601562 265.125 86.175781 265.125 86.175781 "/></clipPath><clipPath id="84858f72f3"><path d="M 215.449219 57.546875 L 288.871094 57.546875 L 288.871094 132.851562 L 215.449219 132.851562 Z M 215.449219 57.546875 "/></clipPath><clipPath id="a79e01aa63"><path d="M 288.824219 84.074219 C 288.898438 107.699219 286.125 113.773438 282.601562 118.351562 C 279 122.925781 273.75 127.050781 268.425781 129.449219 C 263.175781 131.851562 256.574219 133.050781 250.800781 132.675781 C 244.949219 132.300781 238.648438 130.351562 233.625 127.351562 C 228.675781 124.351562 223.949219 119.625 220.949219 114.675781 C 217.949219 109.648438 216 103.351562 215.625 97.5 C 215.25 91.726562 216.449219 85.125 218.851562 79.875 C 221.25 74.550781 225.375 69.300781 229.949219 65.699219 C 234.523438 62.175781 240.601562 59.398438 246.300781 58.351562 C 252 57.300781 258.675781 57.75 264.226562 59.476562 C 269.773438 61.199219 279.601562 68.773438 279.601562 68.773438 "/></clipPath><clipPath id="d14a4dd93f"><path d="M 238 51.472656 L 311.609375 51.472656 L 311.609375 126.777344 L 238 126.777344 Z M 238 51.472656 "/></clipPath><clipPath id="cba6a7e265"><path d="M 311.324219 78 C 311.324219 101.625 308.625 107.699219 305.023438 112.273438 C 301.425781 116.851562 296.175781 120.976562 290.925781 123.375 C 285.601562 125.773438 279.074219 126.976562 273.226562 126.601562 C 267.449219 126.226562 261.074219 124.273438 256.125 121.273438 C 251.101562 118.273438 246.449219 113.550781 243.449219 108.523438 C 240.375 103.574219 238.425781 97.199219 238.050781 91.425781 C 237.75 85.648438 238.949219 79.050781 241.351562 73.800781 C 243.675781 68.476562 247.800781 63.226562 252.375 59.625 C 256.949219 56.023438 263.023438 53.324219 268.726562 52.273438 C 274.5 51.226562 281.101562 51.601562 286.648438 53.398438 C 292.199219 55.125 302.023438 62.625 302.023438 62.625 "/></clipPath><clipPath id="2932676cc3"><path d="M 260.148438 62.570312 L 333.570312 62.570312 L 333.570312 137.875 L 260.148438 137.875 Z M 260.148438 62.570312 "/></clipPath><clipPath id="d7702736da"><path d="M 333.523438 89.101562 C 333.601562 112.726562 330.824219 118.800781 327.226562 123.375 C 323.699219 127.949219 318.449219 132.074219 313.125 134.476562 C 307.800781 136.800781 301.273438 138 295.425781 137.699219 C 289.648438 137.324219 283.273438 135.300781 278.324219 132.300781 C 273.375 129.300781 268.648438 124.574219 265.648438 119.625 C 262.648438 114.675781 260.625 108.300781 260.324219 102.523438 C 259.949219 96.675781 261.148438 90.148438 263.550781 84.824219 C 265.949219 79.574219 270 74.324219 274.574219 70.726562 C 279.148438 67.125 285.226562 64.425781 291 63.375 C 296.699219 62.324219 303.375 62.699219 308.925781 64.425781 C 314.398438 66.148438 324.226562 73.726562 324.226562 73.726562 "/></clipPath><clipPath id="d0aa344071"><path d="M 271.324219 86.496094 L 344.746094 86.496094 L 344.746094 161.800781 L 271.324219 161.800781 Z M 271.324219 86.496094 "/></clipPath><clipPath id="7968f23a0c"><path d="M 344.699219 113.023438 C 344.773438 136.726562 342 142.800781 338.398438 147.375 C 334.875 151.949219 329.625 156 324.300781 158.398438 C 318.976562 160.800781 312.449219 162 306.675781 161.625 C 300.824219 161.324219 294.449219 159.300781 289.5 156.300781 C 284.550781 153.300781 279.824219 148.574219 276.824219 143.625 C 273.824219 138.675781 271.800781 132.300781 271.5 126.449219 C 271.125 120.675781 272.324219 114.148438 274.726562 108.824219 C 277.125 103.5 281.25 98.25 285.824219 94.726562 C 290.398438 91.125 296.476562 88.351562 302.175781 87.300781 C 307.875 86.25 314.550781 86.699219 320.101562 88.425781 C 325.648438 90.148438 335.398438 97.726562 335.398438 97.726562 "/></clipPath><clipPath id="35d4733324"><path d="M 271.324219 109 L 344.746094 109 L 344.746094 184.300781 L 271.324219 184.300781 Z M 271.324219 109 "/></clipPath><clipPath id="60f2e2e435"><path d="M 344.699219 135.523438 C 344.773438 159.148438 342 165.226562 338.398438 169.800781 C 334.875 174.375 329.625 178.5 324.300781 180.898438 C 318.976562 183.300781 312.449219 184.5 306.675781 184.125 C 300.824219 183.75 294.449219 181.800781 289.5 178.800781 C 284.550781 175.800781 279.824219 171.074219 276.824219 166.125 C 273.824219 161.101562 271.800781 154.726562 271.5 148.949219 C 271.125 143.175781 272.324219 136.574219 274.726562 131.324219 C 277.125 126 281.25 120.75 285.824219 117.148438 C 290.398438 113.625 296.476562 110.851562 302.175781 109.800781 C 307.875 108.75 314.550781 109.199219 320.101562 110.925781 C 325.648438 112.648438 335.398438 120.226562 335.398438 120.226562 "/></clipPath><clipPath id="3add67ecc2"><path d="M 265.398438 130 L 338.820312 130 L 338.820312 205.300781 L 265.398438 205.300781 Z M 265.398438 130 "/></clipPath><clipPath id="361eecb843"><path d="M 338.773438 156.523438 C 338.851562 180.148438 336.074219 186.226562 332.550781 190.800781 C 328.949219 195.375 323.699219 199.5 318.375 201.898438 C 313.125 204.226562 306.523438 205.5 300.75 205.125 C 294.976562 204.75 288.601562 202.800781 283.574219 199.800781 C 278.625 196.800781 273.898438 192.074219 270.898438 187.050781 C 267.898438 182.101562 265.949219 175.726562 265.574219 169.949219 C 265.199219 164.175781 266.398438 157.574219 268.800781 152.25 C 271.199219 147 275.324219 141.75 279.898438 138.148438 C 284.476562 134.550781 290.550781 131.851562 296.25 130.800781 C 301.949219 129.75 308.625 130.125 314.175781 131.851562 C 319.726562 133.574219 329.550781 141.148438 329.550781 141.148438 "/></clipPath><clipPath id="951f9359df"><path d="M 247.625 154.671875 L 321 154.671875 L 321 229.976562 L 247.625 229.976562 Z M 247.625 154.671875 "/></clipPath><clipPath id="77b1d1c5c4"><path d="M 321 181.199219 C 321.074219 204.824219 318.300781 210.898438 314.773438 215.476562 C 311.175781 220.050781 305.925781 224.175781 300.601562 226.5 C 295.351562 228.898438 288.75 230.101562 282.976562 229.726562 C 277.199219 229.425781 270.824219 227.398438 265.800781 224.398438 C 260.851562 221.398438 256.125 216.675781 253.125 211.726562 C 250.125 206.773438 248.175781 200.398438 247.800781 194.625 C 247.425781 188.773438 248.625 182.25 251.023438 176.925781 C 253.425781 171.601562 257.550781 166.425781 262.125 162.824219 C 266.699219 159.226562 272.773438 156.523438 278.476562 155.476562 C 284.175781 154.425781 290.851562 154.800781 296.398438 156.523438 C 301.949219 158.25 311.773438 165.824219 311.773438 165.824219 "/></clipPath><clipPath id="08a7411843"><path d="M 257.300781 148.746094 L 331 148.746094 L 331 224 L 257.300781 224 Z M 257.300781 148.746094 "/></clipPath><clipPath id="7303ce63a8"><path d="M 330.75 175.273438 C 330.75 198.898438 327.976562 204.976562 324.449219 209.550781 C 320.851562 214.125 315.601562 218.25 310.273438 220.648438 C 305.023438 223.050781 298.425781 224.25 292.648438 223.875 C 286.875 223.5 280.5 221.550781 275.476562 218.550781 C 270.523438 215.550781 265.800781 210.824219 262.800781 205.875 C 259.800781 200.851562 257.851562 194.476562 257.476562 188.699219 C 257.101562 182.925781 258.300781 176.324219 260.699219 171.074219 C 263.101562 165.75 267.226562 160.5 271.800781 156.898438 C 276.375 153.300781 282.449219 150.601562 288.148438 149.550781 C 293.851562 148.5 300.523438 148.875 306.074219 150.675781 C 311.625 152.398438 321.449219 159.898438 321.449219 159.898438 "/></clipPath><clipPath id="a5a2dd66d0"><path d="M 234.445312 124 L 309.679688 124 L 309.679688 199.519531 L 234.445312 199.519531 Z M 234.445312 124 "/></clipPath><clipPath id="975c3bec64"><path d="M 234.601562 161.550781 C 237.824219 145.800781 239.851562 142.050781 242.25 138.898438 C 244.648438 135.675781 247.800781 132.75 251.101562 130.5 C 254.398438 128.324219 258.226562 126.523438 262.125 125.476562 C 265.949219 124.351562 270.148438 123.898438 274.125 124.125 C 278.175781 124.351562 282.300781 125.25 285.976562 126.75 C 289.726562 128.25 293.398438 130.425781 296.398438 132.976562 C 299.476562 135.601562 302.175781 138.824219 304.273438 142.273438 C 306.300781 145.648438 307.875 149.625 308.773438 153.523438 C 309.601562 157.425781 309.824219 161.699219 309.449219 165.675781 C 309 169.574219 307.875 173.699219 306.148438 177.300781 C 304.5 180.976562 302.101562 184.5 299.324219 187.351562 C 296.625 190.273438 293.25 192.824219 289.726562 194.699219 C 286.199219 196.574219 282.148438 197.925781 278.175781 198.601562 C 274.273438 199.273438 270 199.273438 266.023438 198.601562 C 262.125 197.925781 258.074219 196.574219 254.550781 194.699219 C 251.023438 192.824219 247.648438 190.273438 244.875 187.351562 C 242.175781 184.5 239.773438 180.976562 238.050781 177.300781 C 236.398438 173.699219 235.273438 169.574219 234.824219 165.601562 C 234.375 161.625 234.675781 157.425781 235.5 153.523438 C 236.324219 149.625 237.898438 145.648438 240 142.199219 C 242.023438 138.824219 244.800781 135.601562 247.875 132.976562 C 250.875 130.425781 254.550781 128.175781 258.226562 126.75 C 261.976562 125.25 266.101562 124.351562 270.074219 124.125 C 274.125 123.898438 278.324219 124.351562 282.148438 125.476562 C 286.050781 126.523438 289.875 128.324219 293.175781 130.574219 C 296.476562 132.75 299.550781 135.675781 302.023438 138.898438 C 304.425781 142.050781 306.375 145.800781 307.648438 149.625 C 308.925781 153.375 309.523438 157.875 309.601562 161.550781 C 309.675781 164.773438 309.300781 167.625 308.550781 170.550781 C 307.875 173.476562 306.824219 176.398438 305.398438 179.023438 C 304.050781 181.648438 302.25 184.273438 300.300781 186.523438 C 298.351562 188.773438 296.023438 190.800781 293.550781 192.523438 C 291.074219 194.25 288.375 195.675781 285.601562 196.726562 C 282.75 197.851562 279.75 198.601562 276.824219 198.976562 C 273.824219 199.351562 270.75 199.351562 267.75 198.976562 C 264.75 198.601562 261.75 197.925781 258.976562 196.875 C 256.199219 195.824219 253.425781 194.398438 250.949219 192.675781 C 248.476562 191.023438 246.148438 188.925781 244.125 186.75 C 242.175781 184.5 240.375 181.949219 238.949219 179.324219 C 237.601562 176.625 236.476562 173.773438 235.726562 170.851562 C 235.050781 167.925781 234.601562 161.851562 234.601562 161.851562 "/></clipPath><clipPath id="d0ddc2839d"><path d="M 215.101562 166 L 290.476562 166 L 290.476562 241.574219 L 215.101562 241.574219 Z M 215.101562 166 "/></clipPath><clipPath id="ec9a3e3996"><path d="M 290.25 203.925781 C 287.023438 219.675781 285 223.5 282.601562 226.648438 C 280.199219 229.800781 277.125 232.726562 273.824219 234.976562 C 270.523438 237.226562 266.625 239.023438 262.800781 240.074219 C 258.898438 241.125 254.699219 241.648438 250.726562 241.425781 C 246.75 241.199219 242.550781 240.300781 238.875 238.800781 C 235.125 237.300781 231.523438 235.125 228.449219 232.5 C 225.449219 229.949219 222.675781 226.726562 220.574219 223.273438 C 218.550781 219.824219 216.976562 215.925781 216.074219 212.023438 C 215.25 208.125 215.023438 203.851562 215.476562 199.875 C 215.851562 195.898438 217.050781 191.773438 218.699219 188.175781 C 220.351562 184.574219 222.75 181.050781 225.523438 178.125 C 228.226562 175.199219 231.675781 172.648438 235.199219 170.773438 C 238.726562 168.898438 242.773438 167.550781 246.675781 166.949219 C 250.648438 166.273438 254.851562 166.273438 258.824219 166.949219 C 262.800781 167.550781 266.773438 168.898438 270.300781 170.773438 C 273.824219 172.648438 277.273438 175.273438 279.976562 178.125 C 282.75 181.050781 285.148438 184.574219 286.800781 188.175781 C 288.449219 191.851562 289.648438 195.898438 290.023438 199.875 C 290.476562 203.851562 290.25 208.125 289.351562 212.023438 C 288.523438 215.925781 286.949219 219.898438 284.925781 223.273438 C 282.824219 226.726562 280.050781 229.949219 277.050781 232.5 C 273.976562 235.125 270.300781 237.300781 266.625 238.800781 C 262.949219 240.300781 258.75 241.199219 254.773438 241.425781 C 250.800781 241.648438 246.523438 241.125 242.699219 240.074219 C 238.875 239.023438 234.976562 237.226562 231.675781 234.976562 C 228.375 232.726562 225.300781 229.800781 222.898438 226.648438 C 220.425781 223.425781 218.476562 219.675781 217.199219 215.925781 C 215.925781 212.101562 215.324219 207.675781 215.25 203.925781 C 215.175781 200.699219 215.550781 197.851562 216.226562 194.925781 C 216.898438 192.074219 218.023438 189.148438 219.375 186.449219 C 220.726562 183.824219 222.523438 181.199219 224.476562 178.949219 C 226.425781 176.699219 228.75 174.675781 231.148438 172.949219 C 233.625 171.226562 236.324219 169.726562 239.175781 168.675781 C 241.949219 167.550781 244.949219 166.800781 247.875 166.425781 C 250.875 166.050781 253.949219 165.976562 256.949219 166.351562 C 259.949219 166.648438 262.949219 167.398438 265.726562 168.449219 C 268.574219 169.5 271.351562 170.851562 273.824219 172.574219 C 276.300781 174.226562 278.625 176.25 280.648438 178.5 C 282.601562 180.75 284.398438 183.300781 285.824219 185.925781 C 287.25 188.550781 288.375 191.398438 289.125 194.324219 C 289.875 197.25 290.25 203.324219 290.25 203.324219 "/></clipPath><clipPath id="8d6468319a"><path d="M 229.25 174.171875 L 302.671875 174.171875 L 302.671875 249.476562 L 229.25 249.476562 Z M 229.25 174.171875 "/></clipPath><clipPath id="2a87eb9dda"><path d="M 302.625 200.699219 C 302.699219 224.324219 299.925781 230.398438 296.324219 234.976562 C 292.800781 239.550781 287.550781 243.675781 282.226562 246 C 276.898438 248.398438 270.375 249.601562 264.601562 249.300781 C 258.75 248.925781 252.375 246.898438 247.425781 243.898438 C 242.476562 240.898438 237.75 236.175781 234.75 231.226562 C 231.75 226.273438 229.726562 219.898438 229.425781 214.125 C 229.050781 208.273438 230.25 201.75 232.648438 196.425781 C 235.050781 191.175781 239.175781 185.925781 243.75 182.324219 C 248.25 178.726562 254.398438 176.023438 260.101562 174.976562 C 265.800781 173.925781 272.476562 174.300781 278.023438 176.023438 C 283.574219 177.75 293.324219 185.324219 293.324219 185.324219 "/></clipPath><clipPath id="ab016af164"><path d="M 215.148438 192 L 288.570312 192 L 288.570312 267.25 L 215.148438 267.25 Z M 215.148438 192 "/></clipPath><clipPath id="c18f221eec"><path d="M 288.523438 218.476562 C 288.523438 242.101562 285.824219 248.175781 282.226562 252.75 C 278.625 257.324219 273.375 261.449219 268.125 263.851562 C 262.800781 266.175781 256.273438 267.375 250.425781 267.074219 C 244.648438 266.699219 238.273438 264.75 233.324219 261.675781 C 228.375 258.675781 223.648438 253.949219 220.648438 249 C 217.648438 244.050781 215.625 237.675781 215.324219 231.898438 C 214.949219 226.050781 216.148438 219.523438 218.550781 214.199219 C 220.949219 208.949219 225 203.699219 229.574219 200.101562 C 234.148438 196.5 240.226562 193.800781 246 192.75 C 251.699219 191.699219 258.375 192.074219 263.851562 193.800781 C 269.398438 195.523438 279.226562 203.101562 279.226562 203.101562 "/></clipPath><clipPath id="48461127f6"><path d="M 194.449219 212 L 268 212 L 268 287.277344 L 194.449219 287.277344 Z M 194.449219 212 "/></clipPath><clipPath id="ff70adcccb"><path d="M 267.898438 238.5 C 267.898438 262.125 265.199219 268.199219 261.601562 272.773438 C 258 277.351562 252.75 281.476562 247.425781 283.875 C 242.175781 286.273438 235.574219 287.476562 229.800781 287.101562 C 224.023438 286.726562 217.648438 284.773438 212.699219 281.773438 C 207.675781 278.773438 202.949219 274.050781 199.949219 269.101562 C 196.949219 264.074219 195 257.699219 194.625 251.925781 C 194.25 246.148438 195.523438 239.550781 197.851562 234.300781 C 200.25 228.976562 204.375 223.726562 208.949219 220.125 C 213.523438 216.523438 219.601562 213.824219 225.300781 212.773438 C 231 211.726562 237.675781 212.175781 243.226562 213.898438 C 248.773438 215.625 258.601562 223.125 258.601562 223.125 "/></clipPath><clipPath id="90a06a68aa"><path d="M 111.347656 219 L 185 219 L 185 294.25 L 111.347656 294.25 Z M 111.347656 219 "/></clipPath><clipPath id="2f05c04207"><path d="M 184.800781 245.476562 C 184.800781 269.175781 182.101562 275.25 178.5 279.824219 C 174.898438 284.398438 169.648438 288.449219 164.398438 290.851562 C 159.074219 293.25 152.550781 294.449219 146.699219 294.074219 C 140.925781 293.773438 134.550781 291.75 129.601562 288.75 C 124.648438 285.75 119.925781 281.023438 116.925781 276.074219 C 113.925781 271.125 111.898438 264.75 111.523438 258.898438 C 111.226562 253.125 112.425781 246.601562 114.824219 241.273438 C 117.148438 235.949219 121.273438 230.699219 125.851562 227.175781 C 130.425781 223.574219 136.5 220.800781 142.199219 219.75 C 147.976562 218.699219 154.574219 219.148438 160.125 220.875 C 165.675781 222.601562 175.5 230.175781 175.5 230.175781 "/></clipPath><clipPath id="84f99b9dde"><path d="M 139 229.296875 L 212.371094 229.296875 L 212.371094 304.601562 L 139 304.601562 Z M 139 229.296875 "/></clipPath><clipPath id="47dbcc6055"><path d="M 212.324219 255.824219 C 212.398438 279.523438 209.625 285.601562 206.023438 290.175781 C 202.5 294.75 197.25 298.800781 191.925781 301.199219 C 186.601562 303.601562 180.074219 304.800781 174.226562 304.425781 C 168.449219 304.125 162.074219 302.101562 157.125 299.101562 C 152.175781 296.101562 147.449219 291.375 144.449219 286.425781 C 141.449219 281.476562 139.425781 275.101562 139.125 269.25 C 138.75 263.476562 139.949219 256.949219 142.351562 251.625 C 144.75 246.300781 148.800781 241.050781 153.375 237.523438 C 157.949219 233.925781 164.023438 231.148438 169.800781 230.101562 C 175.5 229.050781 182.175781 229.5 187.726562 231.226562 C 193.273438 232.949219 203.023438 240.523438 203.023438 240.523438 "/></clipPath><clipPath id="ebd5fcb7d3"><path d="M 154.179688 233 L 229.730469 233 L 229.730469 308.105469 L 154.179688 308.105469 Z M 154.179688 233 "/></clipPath><clipPath id="06badcd605"><path d="M 192.074219 233.023438 C 207.824219 236.25 211.574219 238.199219 214.800781 240.675781 C 217.949219 243.074219 220.875 246.148438 223.125 249.449219 C 225.375 252.75 227.175781 256.648438 228.226562 260.476562 C 229.273438 264.300781 229.726562 268.574219 229.5 272.550781 C 229.273438 276.523438 228.375 280.648438 226.875 284.398438 C 225.449219 288.074219 223.273438 291.75 220.648438 294.75 C 218.101562 297.824219 214.800781 300.601562 211.425781 302.625 C 207.976562 304.726562 204 306.300781 200.101562 307.125 C 196.199219 308.023438 192 308.25 188.023438 307.800781 C 184.050781 307.351562 179.925781 306.226562 176.324219 304.574219 C 172.726562 302.851562 169.199219 300.449219 166.273438 297.75 C 163.351562 294.976562 160.800781 291.601562 158.925781 288.074219 C 157.050781 284.550781 155.699219 280.5 155.023438 276.601562 C 154.425781 272.625 154.425781 268.351562 155.023438 264.449219 C 155.699219 260.476562 157.050781 256.425781 158.925781 252.898438 C 160.800781 249.375 163.351562 246 166.273438 243.300781 C 169.199219 240.523438 172.726562 238.125 176.324219 236.476562 C 179.925781 234.75 184.050781 233.625 188.023438 233.25 C 192 232.800781 196.273438 233.023438 200.175781 233.851562 C 204.074219 234.75 207.976562 236.324219 211.425781 238.351562 C 214.800781 240.449219 218.101562 243.148438 220.648438 246.226562 C 223.273438 249.300781 225.449219 252.898438 226.949219 256.648438 C 228.375 260.324219 229.273438 264.523438 229.5 268.5 C 229.726562 272.476562 229.273438 276.675781 228.226562 280.574219 C 227.175781 284.398438 225.375 288.226562 223.125 291.523438 C 220.875 294.898438 217.949219 297.976562 214.726562 300.375 C 211.574219 302.773438 207.824219 304.800781 204 306.074219 C 200.25 307.351562 195.75 307.949219 192.074219 308.023438 C 188.851562 308.101562 186 307.648438 183.074219 306.976562 C 180.148438 306.226562 177.300781 305.175781 174.601562 303.75 C 171.976562 302.398438 169.425781 300.675781 167.175781 298.648438 C 164.925781 296.699219 162.824219 294.375 161.101562 291.898438 C 159.449219 289.5 157.949219 286.726562 156.898438 283.949219 C 155.851562 281.175781 155.101562 278.175781 154.726562 275.175781 C 154.351562 272.175781 154.351562 269.101562 154.648438 266.101562 C 155.023438 263.175781 155.773438 260.175781 156.824219 257.324219 C 157.875 254.550781 159.300781 251.773438 160.949219 249.300781 C 162.675781 246.824219 164.699219 244.5 166.949219 242.550781 C 169.199219 240.523438 171.75 238.726562 174.375 237.375 C 177 235.949219 179.925781 234.824219 182.773438 234.148438 C 185.699219 233.398438 191.773438 233.023438 191.773438 233.023438 "/></clipPath><clipPath id="0016ea614d"><path d="M 163.328125 233 L 238.878906 233 L 238.878906 308.105469 L 163.328125 308.105469 Z M 163.328125 233 "/></clipPath><clipPath id="6ecad6400d"><path d="M 201.148438 233.023438 C 216.976562 236.25 220.726562 238.199219 223.875 240.675781 C 227.023438 243.074219 229.949219 246.148438 232.199219 249.449219 C 234.449219 252.75 236.25 256.648438 237.300781 260.476562 C 238.425781 264.300781 238.875 268.574219 238.648438 272.550781 C 238.425781 276.523438 237.523438 280.648438 236.023438 284.398438 C 234.523438 288.074219 232.351562 291.75 229.800781 294.75 C 227.175781 297.824219 223.949219 300.601562 220.5 302.625 C 217.125 304.726562 213.148438 306.300781 209.25 307.125 C 205.351562 308.023438 201.074219 308.25 197.101562 307.800781 C 193.125 307.351562 189.074219 306.226562 185.398438 304.574219 C 181.800781 302.851562 178.273438 300.449219 175.351562 297.75 C 172.5 294.976562 169.875 291.601562 168.074219 288.074219 C 166.199219 284.550781 164.773438 280.5 164.175781 276.601562 C 163.5 272.625 163.5 268.351562 164.175781 264.449219 C 164.851562 260.476562 166.199219 256.425781 168.074219 252.898438 C 169.949219 249.375 172.5 246 175.425781 243.300781 C 178.273438 240.523438 181.800781 238.125 185.476562 236.476562 C 189.074219 234.75 193.199219 233.625 197.101562 233.25 C 201.074219 232.800781 205.351562 233.023438 209.25 233.851562 C 213.148438 234.75 217.125 236.324219 220.5 238.351562 C 223.949219 240.449219 227.175781 243.148438 229.800781 246.226562 C 232.351562 249.300781 234.523438 252.898438 236.023438 256.648438 C 237.523438 260.324219 238.425781 264.523438 238.648438 268.5 C 238.875 272.476562 238.425781 276.675781 237.300781 280.574219 C 236.25 284.398438 234.449219 288.226562 232.199219 291.523438 C 229.949219 294.898438 227.023438 297.976562 223.875 300.375 C 220.726562 302.773438 216.898438 304.800781 213.148438 306.074219 C 209.398438 307.351562 204.898438 307.949219 201.148438 308.023438 C 198 308.101562 195.074219 307.648438 192.226562 306.976562 C 189.300781 306.226562 186.375 305.175781 183.75 303.75 C 181.050781 302.398438 178.5 300.675781 176.25 298.648438 C 174 296.699219 171.976562 294.375 170.25 291.898438 C 168.523438 289.5 167.101562 286.726562 166.050781 283.949219 C 164.925781 281.175781 164.175781 278.175781 163.800781 275.175781 C 163.425781 272.175781 163.425781 269.101562 163.800781 266.101562 C 164.101562 263.175781 164.851562 260.175781 165.898438 257.324219 C 166.949219 254.550781 168.375 251.773438 170.101562 249.300781 C 171.75 246.824219 173.851562 244.5 176.023438 242.550781 C 178.273438 240.523438 180.824219 238.726562 183.449219 237.375 C 186.148438 235.949219 189 234.824219 191.925781 234.148438 C 194.851562 233.398438 200.925781 233.023438 200.925781 233.023438 "/></clipPath><clipPath id="f6cb583e23"><path d="M 168.5 231.621094 L 241.921875 231.621094 L 241.921875 306.925781 L 168.5 306.925781 Z M 168.5 231.621094 "/></clipPath><clipPath id="6c0ae2cdf9"><path d="M 241.875 258.148438 C 241.949219 281.773438 239.175781 287.851562 235.648438 292.425781 C 232.050781 297 226.800781 301.125 221.476562 303.523438 C 216.226562 305.925781 209.625 307.125 203.851562 306.75 C 198 306.375 191.699219 304.425781 186.675781 301.425781 C 181.726562 298.425781 177 293.699219 174 288.675781 C 171 283.726562 169.050781 277.351562 168.675781 271.574219 C 168.300781 265.800781 169.5 259.199219 171.898438 253.949219 C 174.300781 248.625 178.425781 243.375 183 239.773438 C 187.574219 236.175781 193.648438 233.476562 199.351562 232.425781 C 205.050781 231.375 211.726562 231.75 217.273438 233.550781 C 222.824219 235.273438 232.648438 242.773438 232.648438 242.773438 "/></clipPath><clipPath id="e792495d39"><path d="M 175.550781 231.621094 L 249 231.621094 L 249 306.925781 L 175.550781 306.925781 Z M 175.550781 231.621094 "/></clipPath><clipPath id="4cd013fb0f"><path d="M 249 258.148438 C 249 281.773438 246.300781 287.851562 242.699219 292.425781 C 239.101562 297 233.851562 301.125 228.601562 303.523438 C 223.273438 305.925781 216.75 307.125 210.898438 306.75 C 205.125 306.375 198.75 304.425781 193.800781 301.425781 C 188.773438 298.425781 184.125 293.699219 181.125 288.675781 C 178.050781 283.726562 176.101562 277.351562 175.726562 271.574219 C 175.425781 265.800781 176.625 259.199219 179.023438 253.949219 C 181.351562 248.625 185.476562 243.375 190.050781 239.773438 C 194.625 236.175781 200.699219 233.476562 206.398438 232.425781 C 212.175781 231.375 218.773438 231.75 224.324219 233.550781 C 229.875 235.273438 239.699219 242.773438 239.699219 242.773438 "/></clipPath><clipPath id="98e9fc0229"><path d="M 127.550781 235.671875 L 201 235.671875 L 201 310.976562 L 127.550781 310.976562 Z M 127.550781 235.671875 "/></clipPath><clipPath id="4053412bbc"><path d="M 201 262.199219 C 201 285.824219 198.300781 291.898438 194.699219 296.476562 C 191.101562 301.050781 185.851562 305.175781 180.601562 307.5 C 175.273438 309.898438 168.675781 311.101562 162.898438 310.800781 C 157.125 310.425781 150.75 308.398438 145.800781 305.398438 C 140.773438 302.398438 136.050781 297.675781 133.050781 292.726562 C 130.050781 287.773438 128.101562 281.398438 127.726562 275.625 C 127.425781 269.773438 128.625 263.25 130.949219 257.925781 C 133.351562 252.675781 137.476562 247.425781 142.050781 243.824219 C 146.625 240.226562 152.699219 237.523438 158.398438 236.476562 C 164.101562 235.425781 170.773438 235.800781 176.324219 237.523438 C 181.875 239.25 191.699219 246.824219 191.699219 246.824219 "/></clipPath><clipPath id="0760b6eec6"><path d="M 142.027344 243.144531 L 217.578125 243.144531 L 217.578125 318.378906 L 142.027344 318.378906 Z M 142.027344 243.144531 "/></clipPath><clipPath id="c587091808"><path d="M 179.851562 243.300781 C 195.601562 246.523438 199.425781 248.550781 202.574219 250.949219 C 205.726562 253.351562 208.648438 256.425781 210.898438 259.726562 C 213.148438 263.023438 214.949219 266.925781 216 270.75 C 217.050781 274.648438 217.574219 278.851562 217.351562 282.824219 C 217.125 286.800781 216.226562 291 214.726562 294.675781 C 213.226562 298.425781 211.050781 302.023438 208.425781 305.101562 C 205.875 308.101562 202.648438 310.875 199.199219 312.976562 C 195.75 315 191.851562 316.574219 187.949219 317.398438 C 184.050781 318.300781 179.773438 318.523438 175.800781 318.074219 C 171.824219 317.625 167.773438 316.5 164.101562 314.851562 C 160.5 313.125 156.976562 310.800781 154.050781 308.023438 C 151.199219 305.25 148.574219 301.875 146.699219 298.351562 C 144.898438 294.824219 143.476562 290.773438 142.875 286.875 C 142.199219 282.898438 142.199219 278.699219 142.875 274.726562 C 143.476562 270.75 144.898438 266.773438 146.773438 263.25 C 148.574219 259.726562 151.199219 256.273438 154.050781 253.574219 C 156.976562 250.800781 160.5 248.398438 164.101562 246.75 C 167.773438 245.101562 171.824219 243.976562 175.800781 243.523438 C 179.773438 243.074219 184.050781 243.300781 187.949219 244.199219 C 191.851562 245.023438 195.824219 246.601562 199.199219 248.699219 C 202.648438 250.726562 205.875 253.5 208.5 256.5 C 211.050781 259.574219 213.226562 263.25 214.726562 266.925781 C 216.226562 270.601562 217.125 274.800781 217.351562 278.773438 C 217.574219 282.75 217.050781 287.023438 216 290.851562 C 214.949219 294.675781 213.148438 298.574219 210.898438 301.875 C 208.648438 305.175781 205.726562 308.25 202.574219 310.648438 C 199.351562 313.050781 195.601562 315.074219 191.851562 316.351562 C 188.023438 317.625 183.601562 318.226562 179.851562 318.300781 C 176.699219 318.375 173.773438 317.925781 170.925781 317.25 C 168 316.574219 165.074219 315.449219 162.449219 314.101562 C 159.75 312.675781 157.199219 310.949219 154.949219 309 C 152.699219 306.976562 150.675781 304.648438 148.949219 302.25 C 147.226562 299.773438 145.800781 297 144.675781 294.226562 C 143.625 291.449219 142.875 288.449219 142.5 285.449219 C 142.125 282.523438 142.125 279.375 142.5 276.449219 C 142.800781 273.449219 143.550781 270.449219 144.601562 267.601562 C 145.648438 264.824219 147.074219 262.050781 148.800781 259.574219 C 150.449219 257.175781 152.476562 254.851562 154.726562 252.824219 C 156.976562 250.800781 159.523438 249.074219 162.148438 247.648438 C 164.773438 246.226562 167.699219 245.175781 170.625 244.425781 C 173.476562 243.675781 179.550781 243.300781 179.550781 243.300781 "/></clipPath><clipPath id="30b82e7887"><path d="M 149.824219 248.269531 L 223.246094 248.269531 L 223.246094 323.574219 L 149.824219 323.574219 Z M 149.824219 248.269531 "/></clipPath><clipPath id="1f3e5e27e4"><path d="M 223.199219 274.800781 C 223.273438 298.425781 220.5 304.5 216.898438 309.074219 C 213.375 313.648438 208.125 317.773438 202.800781 320.175781 C 197.476562 322.574219 190.949219 323.773438 185.175781 323.398438 C 179.324219 323.023438 172.949219 321.074219 168 318.074219 C 163.050781 315.074219 158.324219 310.351562 155.324219 305.324219 C 152.324219 300.375 150.300781 294 150 288.226562 C 149.625 282.449219 150.824219 275.851562 153.226562 270.601562 C 155.625 265.273438 159.675781 260.023438 164.25 256.425781 C 168.824219 252.824219 174.976562 250.125 180.675781 249.074219 C 186.375 248.023438 193.050781 248.398438 198.601562 250.199219 C 204.148438 251.925781 213.898438 259.425781 213.898438 259.425781 "/></clipPath><clipPath id="df755de9d7"><path d="M 156.648438 248.269531 L 230.382812 248.269531 L 230.382812 323.574219 L 156.648438 323.574219 Z M 156.648438 248.269531 "/></clipPath><clipPath id="3b7052fe97"><path d="M 230.101562 274.800781 C 230.101562 298.425781 227.398438 304.5 223.800781 309.074219 C 220.199219 313.648438 214.949219 317.773438 209.625 320.175781 C 204.375 322.574219 197.773438 323.773438 192 323.398438 C 186.226562 323.023438 179.851562 321.074219 174.898438 318.074219 C 169.875 315.074219 165.148438 310.351562 162.148438 305.324219 C 159.148438 300.375 157.199219 294 156.824219 288.226562 C 156.523438 282.449219 157.726562 275.851562 160.050781 270.601562 C 162.449219 265.273438 166.574219 260.023438 171.148438 256.425781 C 175.726562 252.824219 181.800781 250.125 187.5 249.074219 C 193.199219 248.023438 199.875 248.398438 205.425781 250.199219 C 210.976562 251.925781 220.800781 259.425781 220.800781 259.425781 "/></clipPath><clipPath id="8876b3af42"><path d="M 142.324219 248.269531 L 215.746094 248.269531 L 215.746094 323.574219 L 142.324219 323.574219 Z M 142.324219 248.269531 "/></clipPath><clipPath id="8e7e5c93d4"><path d="M 215.699219 274.800781 C 215.773438 298.425781 213 304.5 209.398438 309.074219 C 205.875 313.648438 200.625 317.773438 195.300781 320.175781 C 189.976562 322.574219 183.449219 323.773438 177.675781 323.398438 C 171.824219 323.023438 165.449219 321.074219 160.5 318.074219 C 155.550781 315.074219 150.824219 310.351562 147.824219 305.324219 C 144.824219 300.375 142.800781 294 142.5 288.226562 C 142.125 282.449219 143.324219 275.851562 145.726562 270.601562 C 148.125 265.273438 152.175781 260.023438 156.75 256.425781 C 161.324219 252.824219 167.476562 250.125 173.175781 249.074219 C 178.875 248.023438 185.550781 248.398438 191.101562 250.199219 C 196.648438 251.925781 206.398438 259.425781 206.398438 259.425781 "/></clipPath><clipPath id="5d98e7d526"><path d="M 161.015625 300.746094 L 214.507812 300.746094 L 214.507812 354.929688 L 161.015625 354.929688 Z M 161.015625 300.746094 "/></clipPath><clipPath id="c107cceafd"><path d="M 187.425781 300.898438 C 195.976562 301.050781 204.375 300.75 208.050781 303.675781 C 211.648438 306.523438 214.648438 313.574219 214.273438 318 C 213.824219 322.199219 208.273438 325.351562 206.398438 329.625 C 204.601562 333.898438 204.601562 339.976562 203.324219 343.648438 C 202.351562 346.199219 201.523438 348.148438 200.023438 349.875 C 198.523438 351.523438 196.351562 353.023438 194.25 353.851562 C 192.074219 354.675781 189.523438 354.976562 187.273438 354.675781 C 185.023438 354.375 182.550781 353.476562 180.675781 352.199219 C 178.800781 350.925781 177.074219 348.976562 176.023438 346.949219 C 174.976562 344.925781 175.574219 342.675781 174.375 340.125 C 172.351562 335.773438 165 328.273438 163.050781 324.449219 C 162.074219 322.574219 161.699219 321.449219 161.476562 319.800781 C 161.175781 318.226562 161.175781 316.5 161.476562 314.925781 C 161.699219 313.351562 162.226562 311.699219 162.976562 310.273438 C 163.726562 308.851562 164.773438 307.5 165.976562 306.375 C 167.101562 305.25 168.523438 304.351562 169.949219 303.601562 C 171.449219 302.925781 173.101562 302.476562 174.675781 302.324219 C 176.324219 302.175781 177.976562 302.25 179.550781 302.550781 C 181.125 302.925781 182.773438 303.523438 184.125 304.351562 C 185.476562 305.175781 186.824219 306.300781 187.875 307.5 C 188.925781 308.773438 189.824219 310.199219 190.425781 311.699219 C 191.023438 313.199219 191.398438 314.851562 191.476562 316.5 C 191.550781 318.074219 191.398438 319.800781 190.949219 321.375 C 190.5 322.875 189.824219 324.449219 188.925781 325.800781 C 188.023438 327.148438 186.824219 328.351562 185.550781 329.324219 C 184.273438 330.300781 182.773438 331.125 181.199219 331.648438 C 179.699219 332.175781 178.050781 332.476562 176.398438 332.476562 C 174.824219 332.476562 173.101562 332.175781 171.601562 331.648438 C 170.023438 331.199219 168.523438 330.375 167.25 329.398438 C 165.976562 328.425781 164.773438 327.226562 163.875 325.875 C 162.976562 324.523438 162.226562 322.949219 161.773438 321.449219 C 161.398438 319.875 161.175781 318.148438 161.25 316.574219 C 161.324219 314.925781 161.699219 313.273438 162.300781 311.773438 C 162.898438 310.273438 163.800781 308.773438 164.851562 307.574219 C 165.824219 306.375 167.175781 305.25 168.523438 304.425781 C 169.949219 303.601562 171.523438 302.925781 173.101562 302.550781 C 174.675781 302.25 176.398438 302.101562 177.976562 302.324219 C 179.550781 302.476562 181.199219 302.925781 182.699219 303.601562 C 184.125 304.273438 185.25 305.101562 186.75 306.375 C 188.925781 308.101562 192.148438 310.726562 194.398438 313.726562 C 196.949219 317.101562 199.273438 321.601562 200.851562 325.949219 C 202.425781 330.375 203.773438 336.226562 203.699219 340.125 C 203.699219 342.824219 202.800781 345.148438 202.050781 346.949219 C 201.449219 348.148438 201 348.898438 200.023438 349.875 C 198.675781 351.226562 196.351562 353.023438 194.25 353.851562 C 192.148438 354.675781 189.523438 354.976562 187.273438 354.675781 C 185.023438 354.375 182.324219 353.175781 180.675781 352.199219 C 179.550781 351.523438 178.875 350.925781 178.050781 349.875 C 176.851562 348.300781 175.351562 345.75 174.75 343.648438 C 174.226562 341.550781 174.300781 339.824219 174.375 337.351562 C 174.523438 333.675781 174 327.675781 175.949219 323.773438 C 177.976562 319.726562 183.976562 312.976562 186.675781 313.574219 C 189.449219 314.25 193.648438 326.398438 192.226562 328.351562 C 191.25 329.699219 186.601562 328.5 184.199219 327.824219 C 182.023438 327.226562 179.925781 326.175781 178.351562 324.75 C 176.773438 323.398438 175.425781 321.375 174.675781 319.425781 C 173.925781 317.398438 173.625 315 173.851562 312.898438 C 174.148438 310.800781 175.273438 308.324219 176.175781 306.75 C 176.851562 305.699219 177.375 305.101562 178.351562 304.273438 C 179.773438 303.226562 182.476562 301.800781 184.199219 301.273438 C 185.398438 300.898438 187.425781 300.898438 187.425781 300.898438 "/></clipPath></defs><g id="a1c839a21a"><g style="fill:#cbc09f;fill-opacity:1;"><g transform="translate(-11.908281, 360.619027)"><path style="stroke:none" d="M 200.597656 -258.824219 C 200.199219 -257.628906 199.402344 -257.628906 199.003906 -258.824219 C 180.261719 -303.492188 145.960938 -318.246094 114.855469 -318.246094 C 68.992188 -318.246094 31.105469 -276.371094 31.105469 -221.734375 C 31.105469 -162.710938 78.566406 -120.039062 108.875 -90.925781 C 145.164062 -56.230469 184.246094 -8.375 199.003906 15.554688 C 199.402344 16.351562 200.199219 16.351562 200.597656 15.554688 C 215.355469 -8.375 254.4375 -56.230469 290.730469 -90.925781 C 321.039062 -120.039062 368.496094 -162.3125 368.496094 -221.734375 C 368.496094 -276.371094 330.609375 -318.246094 284.746094 -318.246094 C 253.640625 -318.246094 218.546875 -303.492188 200.597656 -258.824219 Z M 353.738281 -221.734375 C 353.738281 -170.289062 308.675781 -128.8125 280.757812 -101.296875 C 246.0625 -68.992188 214.957031 -32.304688 200.597656 -9.570312 C 200.199219 -8.773438 199.402344 -8.773438 199.003906 -9.570312 C 184.648438 -32.304688 153.539062 -68.992188 119.242188 -101.296875 C 90.925781 -128.414062 45.863281 -170.6875 45.863281 -221.734375 C 45.863281 -268.394531 77.367188 -303.890625 114.855469 -303.890625 C 149.550781 -303.890625 172.285156 -285.542969 189.035156 -245.664062 C 191.824219 -238.882812 195.414062 -235.296875 199.800781 -235.296875 C 204.1875 -235.296875 207.777344 -238.882812 210.570312 -245.664062 C 227.320312 -285.542969 250.050781 -303.890625 284.746094 -303.890625 C 322.234375 -303.890625 353.738281 -268.394531 353.738281 -221.734375 Z M 353.738281 -221.734375 "/></g></g><g clip-rule="nonzero" clip-path="url(#f0e172db47)"><g clip-rule="nonzero" clip-path="url(#5d6ca0502c)"><path style=" stroke:none;fill-rule:nonzero;fill:#cbc09f;fill-opacity:1;" d="M 38.476562 49.800781 L 192.554688 49.800781 L 192.554688 166.5 L 38.476562 166.5 Z M 38.476562 49.800781 "/></g></g><g clip-rule="nonzero" clip-path="url(#dd77da0186)"><g clip-rule="nonzero" clip-path="url(#3c25d64ade)"><path style=" stroke:none;fill-rule:nonzero;fill:#cbc09f;fill-opacity:1;" d="M 84.300781 57.148438 L 164.625 57.148438 L 164.625 137.476562 L 84.300781 137.476562 Z M 84.300781 57.148438 "/></g></g><g clip-rule="nonzero" clip-path="url(#133988ce2e)"><g clip-rule="nonzero" clip-path="url(#21cc3d810a)"><path style=" stroke:none;fill-rule:nonzero;fill:#cbc09f;fill-opacity:1;" d="M 72.601562 49.800781 L 152.925781 49.800781 L 152.925781 130.125 L 72.601562 130.125 Z M 72.601562 49.800781 "/></g></g><g clip-rule="nonzero" clip-path="url(#c6551edc25)"><g clip-rule="nonzero" clip-path="url(#146733c77b)"><path style=" stroke:none;fill-rule:nonzero;fill:#cbc09f;fill-opacity:1;" d="M 44.699219 113.175781 L 125.023438 113.175781 L 125.023438 193.5 L 44.699219 193.5 Z M 44.699219 113.175781 "/></g></g><g clip-rule="nonzero" clip-path="url(#a03b611fd8)"><g clip-rule="nonzero" clip-path="url(#8b497b934a)"><path style=" stroke:none;fill-rule:nonzero;fill:#cbc09f;fill-opacity:1;" d="M 36.75 107.773438 L 117.074219 107.773438 L 117.074219 188.101562 L 36.75 188.101562 Z M 36.75 107.773438 "/></g></g><g clip-rule="nonzero" clip-path="url(#d5b57862c4)"><g clip-rule="nonzero" clip-path="url(#dd9c533b98)"><path style=" stroke:none;fill-rule:nonzero;fill:#cbc09f;fill-opacity:1;" d="M 32.476562 93.898438 L 113.398438 93.898438 L 113.398438 174.824219 L 32.476562 174.824219 Z M 32.476562 93.898438 "/></g></g><g clip-rule="nonzero" clip-path="url(#7e837a2bb1)"><g clip-rule="nonzero" clip-path="url(#1d1d16c674)"><path style=" stroke:none;fill-rule:nonzero;fill:#cbc09f;fill-opacity:1;" d="M 28.050781 83.175781 L 108.375 83.175781 L 108.375 163.5 L 28.050781 163.5 Z M 28.050781 83.175781 "/></g></g><g clip-rule="nonzero" clip-path="url(#7de5350aa3)"><g clip-rule="nonzero" clip-path="url(#d21a628844)"><path style=" stroke:none;fill-rule:nonzero;fill:#cbc09f;fill-opacity:1;" d="M 28.648438 103.273438 L 108.976562 103.273438 L 108.976562 183.601562 L 28.648438 183.601562 Z M 28.648438 103.273438 "/></g></g><g clip-rule="nonzero" clip-path="url(#4cd3cd682d)"><g clip-rule="nonzero" clip-path="url(#8882896271)"><path style=" stroke:none;fill-rule:nonzero;fill:#cbc09f;fill-opacity:1;" d="M 28.875 116.476562 L 109.800781 116.476562 L 109.800781 197.398438 L 28.875 197.398438 Z M 28.875 116.476562 "/></g></g><g clip-rule="nonzero" clip-path="url(#8fa88185ec)"><g clip-rule="nonzero" clip-path="url(#bf7977bc39)"><path style=" stroke:none;fill-rule:nonzero;fill:#cbc09f;fill-opacity:1;" d="M 35.699219 130.199219 L 116.550781 130.199219 L 116.550781 211.367188 L 35.699219 211.367188 Z M 35.699219 130.199219 "/></g></g><g clip-rule="nonzero" clip-path="url(#527edea25e)"><g clip-rule="nonzero" clip-path="url(#cf11b09fc6)"><path style=" stroke:none;fill-rule:nonzero;fill:#cbc09f;fill-opacity:1;" d="M 42.75 142.800781 L 123.75 142.800781 L 123.75 223.800781 L 42.75 223.800781 Z M 42.75 142.800781 "/></g></g><g clip-rule="nonzero" clip-path="url(#2ae34f3dd3)"><g clip-rule="nonzero" clip-path="url(#f7d1473266)"><path style=" stroke:none;fill-rule:nonzero;fill:#cbc09f;fill-opacity:1;" d="M 55.050781 158.851562 L 135.375 158.851562 L 135.375 239.175781 L 55.050781 239.175781 Z M 55.050781 158.851562 "/></g></g><g clip-rule="nonzero" clip-path="url(#9587b40073)"><g clip-rule="nonzero" clip-path="url(#d471ad467f)"><path style=" stroke:none;fill-rule:nonzero;fill:#cbc09f;fill-opacity:1;" d="M 78.226562 188.023438 L 158.550781 188.023438 L 158.550781 268.351562 L 78.226562 268.351562 Z M 78.226562 188.023438 "/></g></g><g clip-rule="nonzero" clip-path="url(#2546f7d037)"><g clip-rule="nonzero" clip-path="url(#0f912d8848)"><path style=" stroke:none;fill-rule:nonzero;fill:#cbc09f;fill-opacity:1;" d="M 88.273438 144.449219 L 169.199219 144.449219 L 169.199219 225.375 L 88.273438 225.375 Z M 88.273438 144.449219 "/></g></g><g clip-rule="nonzero" clip-path="url(#3c6881b429)"><g clip-rule="nonzero" clip-path="url(#d08f042ca3)"><path style=" stroke:none;fill-rule:nonzero;fill:#cbc09f;fill-opacity:1;" d="M 88.351562 139.050781 L 168.675781 139.050781 L 168.675781 219.375 L 88.351562 219.375 Z M 88.351562 139.050781 "/></g></g><g clip-rule="nonzero" clip-path="url(#1c65bf586e)"><g clip-rule="nonzero" clip-path="url(#370d859830)"><path style=" stroke:none;fill-rule:nonzero;fill:#cbc09f;fill-opacity:1;" d="M 100.199219 101.101562 L 265.125 101.101562 L 265.125 277.621094 L 100.199219 277.621094 Z M 100.199219 101.101562 "/></g></g><g clip-rule="nonzero" clip-path="url(#b1df31f594)"><g clip-rule="nonzero" clip-path="url(#f92ba518a5)"><path style=" stroke:none;fill-rule:nonzero;fill:#cbc09f;fill-opacity:1;" d="M 180.375 105.976562 L 260.699219 105.976562 L 260.699219 186.300781 L 180.375 186.300781 Z M 180.375 105.976562 "/></g></g><g clip-rule="nonzero" clip-path="url(#5760532e20)"><g clip-rule="nonzero" clip-path="url(#da81d0e2c9)"><path style=" stroke:none;fill-rule:nonzero;fill:#cbc09f;fill-opacity:1;" d="M 198.148438 72.75 L 278.476562 72.75 L 278.476562 153.074219 L 198.148438 153.074219 Z M 198.148438 72.75 "/></g></g><g clip-rule="nonzero" clip-path="url(#84858f72f3)"><g clip-rule="nonzero" clip-path="url(#a79e01aa63)"><path style=" stroke:none;fill-rule:nonzero;fill:#cbc09f;fill-opacity:1;" d="M 212.625 55.351562 L 292.949219 55.351562 L 292.949219 135.675781 L 212.625 135.675781 Z M 212.625 55.351562 "/></g></g><g clip-rule="nonzero" clip-path="url(#d14a4dd93f)"><g clip-rule="nonzero" clip-path="url(#cba6a7e265)"><path style=" stroke:none;fill-rule:nonzero;fill:#cbc09f;fill-opacity:1;" d="M 235.050781 49.273438 L 315.375 49.273438 L 315.375 129.601562 L 235.050781 129.601562 Z M 235.050781 49.273438 "/></g></g><g clip-rule="nonzero" clip-path="url(#2932676cc3)"><g clip-rule="nonzero" clip-path="url(#d7702736da)"><path style=" stroke:none;fill-rule:nonzero;fill:#cbc09f;fill-opacity:1;" d="M 257.324219 60.375 L 337.648438 60.375 L 337.648438 140.699219 L 257.324219 140.699219 Z M 257.324219 60.375 "/></g></g><g clip-rule="nonzero" clip-path="url(#d0aa344071)"><g clip-rule="nonzero" clip-path="url(#7968f23a0c)"><path style=" stroke:none;fill-rule:nonzero;fill:#cbc09f;fill-opacity:1;" d="M 268.5 84.300781 L 348.824219 84.300781 L 348.824219 164.625 L 268.5 164.625 Z M 268.5 84.300781 "/></g></g><g clip-rule="nonzero" clip-path="url(#35d4733324)"><g clip-rule="nonzero" clip-path="url(#60f2e2e435)"><path style=" stroke:none;fill-rule:nonzero;fill:#cbc09f;fill-opacity:1;" d="M 268.5 106.800781 L 348.824219 106.800781 L 348.824219 187.125 L 268.5 187.125 Z M 268.5 106.800781 "/></g></g><g clip-rule="nonzero" clip-path="url(#3add67ecc2)"><g clip-rule="nonzero" clip-path="url(#361eecb843)"><path style=" stroke:none;fill-rule:nonzero;fill:#cbc09f;fill-opacity:1;" d="M 262.574219 127.800781 L 342.898438 127.800781 L 342.898438 208.125 L 262.574219 208.125 Z M 262.574219 127.800781 "/></g></g><g clip-rule="nonzero" clip-path="url(#951f9359df)"><g clip-rule="nonzero" clip-path="url(#77b1d1c5c4)"><path style=" stroke:none;fill-rule:nonzero;fill:#cbc09f;fill-opacity:1;" d="M 244.800781 152.476562 L 325.125 152.476562 L 325.125 232.800781 L 244.800781 232.800781 Z M 244.800781 152.476562 "/></g></g><g clip-rule="nonzero" clip-path="url(#08a7411843)"><g clip-rule="nonzero" clip-path="url(#7303ce63a8)"><path style=" stroke:none;fill-rule:nonzero;fill:#cbc09f;fill-opacity:1;" d="M 254.476562 146.550781 L 334.800781 146.550781 L 334.800781 226.875 L 254.476562 226.875 Z M 254.476562 146.550781 "/></g></g><g clip-rule="nonzero" clip-path="url(#a5a2dd66d0)"><g clip-rule="nonzero" clip-path="url(#975c3bec64)"><path style=" stroke:none;fill-rule:nonzero;fill:#cbc09f;fill-opacity:1;" d="M 231.601562 121.125 L 312.523438 121.125 L 312.523438 202.050781 L 231.601562 202.050781 Z M 231.601562 121.125 "/></g></g><g clip-rule="nonzero" clip-path="url(#d0ddc2839d)"><g clip-rule="nonzero" clip-path="url(#ec9a3e3996)"><path style=" stroke:none;fill-rule:nonzero;fill:#cbc09f;fill-opacity:1;" d="M 212.25 163.351562 L 293.324219 163.351562 L 293.324219 244.425781 L 212.25 244.425781 Z M 212.25 163.351562 "/></g></g><g clip-rule="nonzero" clip-path="url(#8d6468319a)"><g clip-rule="nonzero" clip-path="url(#2a87eb9dda)"><path style=" stroke:none;fill-rule:nonzero;fill:#cbc09f;fill-opacity:1;" d="M 226.425781 171.976562 L 306.75 171.976562 L 306.75 252.300781 L 226.425781 252.300781 Z M 226.425781 171.976562 "/></g></g><g clip-rule="nonzero" clip-path="url(#ab016af164)"><g clip-rule="nonzero" clip-path="url(#c18f221eec)"><path style=" stroke:none;fill-rule:nonzero;fill:#cbc09f;fill-opacity:1;" d="M 212.324219 189.75 L 292.648438 189.75 L 292.648438 270.074219 L 212.324219 270.074219 Z M 212.324219 189.75 "/></g></g><g clip-rule="nonzero" clip-path="url(#48461127f6)"><g clip-rule="nonzero" clip-path="url(#ff70adcccb)"><path style=" stroke:none;fill-rule:nonzero;fill:#cbc09f;fill-opacity:1;" d="M 191.625 209.773438 L 271.949219 209.773438 L 271.949219 290.101562 L 191.625 290.101562 Z M 191.625 209.773438 "/></g></g><g clip-rule="nonzero" clip-path="url(#90a06a68aa)"><g clip-rule="nonzero" clip-path="url(#2f05c04207)"><path style=" stroke:none;fill-rule:nonzero;fill:#cbc09f;fill-opacity:1;" d="M 108.523438 216.75 L 188.851562 216.75 L 188.851562 297.074219 L 108.523438 297.074219 Z M 108.523438 216.75 "/></g></g><g clip-rule="nonzero" clip-path="url(#84f99b9dde)"><g clip-rule="nonzero" clip-path="url(#47dbcc6055)"><path style=" stroke:none;fill-rule:nonzero;fill:#cbc09f;fill-opacity:1;" d="M 136.125 227.101562 L 216.449219 227.101562 L 216.449219 307.425781 L 136.125 307.425781 Z M 136.125 227.101562 "/></g></g><g clip-rule="nonzero" clip-path="url(#ebd5fcb7d3)"><g clip-rule="nonzero" clip-path="url(#06badcd605)"><path style=" stroke:none;fill-rule:nonzero;fill:#cbc09f;fill-opacity:1;" d="M 151.648438 230.023438 L 232.574219 230.023438 L 232.574219 310.949219 L 151.648438 310.949219 Z M 151.648438 230.023438 "/></g></g><g clip-rule="nonzero" clip-path="url(#0016ea614d)"><g clip-rule="nonzero" clip-path="url(#6ecad6400d)"><path style=" stroke:none;fill-rule:nonzero;fill:#cbc09f;fill-opacity:1;" d="M 160.800781 230.023438 L 241.726562 230.023438 L 241.726562 310.949219 L 160.800781 310.949219 Z M 160.800781 230.023438 "/></g></g><g clip-rule="nonzero" clip-path="url(#f6cb583e23)"><g clip-rule="nonzero" clip-path="url(#6c0ae2cdf9)"><path style=" stroke:none;fill-rule:nonzero;fill:#cbc09f;fill-opacity:1;" d="M 165.675781 229.425781 L 246 229.425781 L 246 309.75 L 165.675781 309.75 Z M 165.675781 229.425781 "/></g></g><g clip-rule="nonzero" clip-path="url(#e792495d39)"><g clip-rule="nonzero" clip-path="url(#4cd013fb0f)"><path style=" stroke:none;fill-rule:nonzero;fill:#cbc09f;fill-opacity:1;" d="M 172.726562 229.425781 L 253.050781 229.425781 L 253.050781 309.75 L 172.726562 309.75 Z M 172.726562 229.425781 "/></g></g><g clip-rule="nonzero" clip-path="url(#98e9fc0229)"><g clip-rule="nonzero" clip-path="url(#4053412bbc)"><path style=" stroke:none;fill-rule:nonzero;fill:#cbc09f;fill-opacity:1;" d="M 124.726562 233.476562 L 205.050781 233.476562 L 205.050781 313.800781 L 124.726562 313.800781 Z M 124.726562 233.476562 "/></g></g><g clip-rule="nonzero" clip-path="url(#0760b6eec6)"><g clip-rule="nonzero" clip-path="url(#c587091808)"><path style=" stroke:none;fill-rule:nonzero;fill:#cbc09f;fill-opacity:1;" d="M 139.5 240.300781 L 220.425781 240.300781 L 220.425781 321.226562 L 139.5 321.226562 Z M 139.5 240.300781 "/></g></g><g clip-rule="nonzero" clip-path="url(#30b82e7887)"><g clip-rule="nonzero" clip-path="url(#1f3e5e27e4)"><path style=" stroke:none;fill-rule:nonzero;fill:#cbc09f;fill-opacity:1;" d="M 147 246.074219 L 227.324219 246.074219 L 227.324219 326.398438 L 147 326.398438 Z M 147 246.074219 "/></g></g><g clip-rule="nonzero" clip-path="url(#df755de9d7)"><g clip-rule="nonzero" clip-path="url(#3b7052fe97)"><path style=" stroke:none;fill-rule:nonzero;fill:#cbc09f;fill-opacity:1;" d="M 153.824219 246.074219 L 234.148438 246.074219 L 234.148438 326.398438 L 153.824219 326.398438 Z M 153.824219 246.074219 "/></g></g><g clip-rule="nonzero" clip-path="url(#8876b3af42)"><g clip-rule="nonzero" clip-path="url(#8e7e5c93d4)"><path style=" stroke:none;fill-rule:nonzero;fill:#cbc09f;fill-opacity:1;" d="M 139.5 246.074219 L 219.824219 246.074219 L 219.824219 326.398438 L 139.5 326.398438 Z M 139.5 246.074219 "/></g></g><g clip-rule="nonzero" clip-path="url(#5d98e7d526)"><g clip-rule="nonzero" clip-path="url(#c107cceafd)"><path style=" stroke:none;fill-rule:nonzero;fill:#cbc09f;fill-opacity:1;" d="M 158.25 297.75 L 217.273438 297.75 L 217.273438 357.695312 L 158.25 357.695312 Z M 158.25 297.75 "/></g></g></g></svg>