<svg xmlns="http://www.w3.org/2000/svg" xmlns:xlink="http://www.w3.org/1999/xlink" width="500" zoomAndPan="magnify" viewBox="0 0 375 374.999991" height="500" preserveAspectRatio="xMidYMid meet" version="1.2"><defs/><g id="e0c7221324"><g style="fill:#f3fdff;fill-opacity:1;"><g transform="translate(-11.905879, 358.9284)"><path style="stroke:none" d="M 200.601562 -258.828125 C 200.203125 -257.628906 199.40625 -257.628906 199.007812 -258.828125 C 180.261719 -303.492188 145.964844 -318.25 114.855469 -318.25 C 68.992188 -318.25 31.105469 -276.375 31.105469 -221.738281 C 31.105469 -162.714844 78.566406 -120.042969 108.875 -90.929688 C 145.167969 -56.230469 184.25 -8.375 199.007812 15.554688 C 199.40625 16.351562 200.203125 16.351562 200.601562 15.554688 C 215.355469 -8.375 254.441406 -56.230469 290.730469 -90.929688 C 321.042969 -120.042969 368.5 -162.316406 368.5 -221.738281 C 368.5 -276.375 330.613281 -318.25 284.75 -318.25 C 253.644531 -318.25 218.546875 -303.492188 200.601562 -258.828125 Z M 353.742188 -221.738281 C 353.742188 -170.292969 308.679688 -128.816406 280.761719 -101.296875 C 246.066406 -68.992188 214.957031 -32.304688 200.601562 -9.570312 C 200.203125 -8.773438 199.40625 -8.773438 199.007812 -9.570312 C 184.648438 -32.304688 153.542969 -68.992188 119.242188 -101.296875 C 90.929688 -128.417969 45.863281 -170.691406 45.863281 -221.738281 C 45.863281 -268.398438 77.367188 -303.894531 114.855469 -303.894531 C 149.554688 -303.894531 172.285156 -285.546875 189.035156 -245.667969 C 191.828125 -238.886719 195.417969 -235.296875 199.804688 -235.296875 C 204.191406 -235.296875 207.78125 -238.886719 210.570312 -245.667969 C 227.320312 -285.546875 250.054688 -303.894531 284.75 -303.894531 C 322.238281 -303.894531 353.742188 -268.398438 353.742188 -221.738281 Z M 353.742188 -221.738281 "/></g></g></g></svg>