<svg xmlns="http://www.w3.org/2000/svg" xmlns:xlink="http://www.w3.org/1999/xlink" width="500" zoomAndPan="magnify" viewBox="0 0 375 374.999991" height="500" preserveAspectRatio="xMidYMid meet" version="1.0"><defs><clipPath id="3beac9d6ec"><path d="M 13.988281 37.5 L 261.214844 37.5 L 261.214844 284.726562 L 13.988281 284.726562 Z M 13.988281 37.5 " clip-rule="nonzero"/></clipPath><clipPath id="498f97c53a"><path d="M 211 223 L 356 223 L 356 358 L 211 358 Z M 211 223 " clip-rule="nonzero"/></clipPath><clipPath id="f398ddd027"><path d="M 205.289062 238.359375 L 224.46875 217.484375 L 361.050781 342.96875 L 341.871094 363.84375 Z M 205.289062 238.359375 " clip-rule="nonzero"/></clipPath><clipPath id="52085d80b5"><path d="M 214.878906 227.921875 C 217.421875 225.152344 220.960938 223.507812 224.714844 223.347656 C 228.472656 223.191406 232.136719 224.53125 234.90625 227.074219 L 350.570312 333.339844 C 353.339844 335.882812 354.984375 339.421875 355.144531 343.179688 C 355.300781 346.933594 353.960938 350.597656 351.417969 353.367188 C 348.875 356.136719 345.335938 357.78125 341.582031 357.9375 C 337.824219 358.097656 334.160156 356.757812 331.390625 354.214844 L 215.726562 247.949219 C 212.957031 245.40625 211.3125 241.867188 211.152344 238.109375 C 210.996094 234.355469 212.335938 230.6875 214.878906 227.921875 Z M 214.878906 227.921875 " clip-rule="nonzero"/></clipPath></defs><g clip-path="url(#3beac9d6ec)"><path fill="#108a93" d="M 137.601562 37.5 C 69.304688 37.5 13.988281 92.816406 13.988281 161.113281 C 13.988281 229.410156 69.304688 284.726562 137.601562 284.726562 C 205.898438 284.726562 261.214844 229.410156 261.214844 161.113281 C 261.214844 92.816406 205.898438 37.5 137.601562 37.5 Z M 137.601562 260.003906 C 82.964844 260.003906 38.710938 215.75 38.710938 161.113281 C 38.710938 106.476562 82.964844 62.222656 137.601562 62.222656 C 192.238281 62.222656 236.492188 106.476562 236.492188 161.113281 C 236.492188 215.75 192.238281 260.003906 137.601562 260.003906 Z M 137.601562 260.003906 " fill-opacity="1" fill-rule="nonzero"/></g><g clip-path="url(#498f97c53a)"><g clip-path="url(#f398ddd027)"><g clip-path="url(#52085d80b5)"><path fill="#108a93" d="M 205.289062 238.359375 L 224.46875 217.484375 L 360.96875 342.894531 L 341.789062 363.769531 Z M 205.289062 238.359375 " fill-opacity="1" fill-rule="nonzero"/></g></g></g></svg>