<svg xmlns="http://www.w3.org/2000/svg" xmlns:xlink="http://www.w3.org/1999/xlink" width="500" zoomAndPan="magnify" viewBox="0 0 375 374.999991" height="500" preserveAspectRatio="xMidYMid meet" version="1.2"><g id="04a8a58aa9"><path style=" stroke:none;fill-rule:nonzero;fill:#f3fdff;fill-opacity:1;" d="M 354.039062 352.546875 L 275.625 248.851562 C 277.628906 246.675781 279.5625 244.433594 281.421875 242.132812 C 283.285156 239.832031 285.070312 237.472656 286.785156 235.058594 C 288.496094 232.640625 290.128906 230.175781 291.6875 227.65625 C 293.242188 225.136719 294.714844 222.574219 296.109375 219.960938 C 297.5 217.347656 298.8125 214.695312 300.035156 212 C 301.257812 209.304688 302.398438 206.570312 303.449219 203.804688 C 304.5 201.039062 305.460938 198.238281 306.335938 195.410156 C 307.210938 192.582031 307.992188 189.726562 308.683594 186.851562 C 309.378906 183.972656 309.976562 181.074219 310.488281 178.15625 C 310.996094 175.242188 311.410156 172.3125 311.734375 169.371094 C 312.058594 166.425781 312.285156 163.476562 312.421875 160.519531 C 312.558594 157.5625 312.597656 154.601562 312.546875 151.644531 C 312.496094 148.683594 312.347656 145.726562 312.109375 142.777344 C 311.871094 139.828125 311.535156 136.886719 311.109375 133.957031 C 310.683594 131.027344 310.164062 128.113281 309.554688 125.21875 C 308.941406 122.320312 308.242188 119.445312 307.445312 116.59375 C 306.652344 113.742188 305.769531 110.917969 304.796875 108.121094 C 303.824219 105.324219 302.765625 102.5625 301.617188 99.835938 C 300.46875 97.105469 299.234375 94.414062 297.917969 91.765625 C 296.597656 89.113281 295.195312 86.507812 293.710938 83.949219 C 292.226562 81.386719 290.664062 78.875 289.019531 76.410156 C 287.378906 73.949219 285.65625 71.542969 283.859375 69.1875 C 282.066406 66.835938 280.195312 64.542969 278.253906 62.304688 C 276.3125 60.070312 274.300781 57.902344 272.222656 55.792969 C 270.140625 53.6875 267.996094 51.648438 265.789062 49.675781 C 263.578125 47.707031 261.3125 45.808594 258.980469 43.980469 C 256.652344 42.152344 254.265625 40.402344 251.824219 38.726562 C 249.386719 37.050781 246.894531 35.453125 244.351562 33.9375 C 241.808594 32.417969 239.222656 30.984375 236.589844 29.628906 C 233.957031 28.277344 231.285156 27.007812 228.570312 25.824219 C 225.855469 24.640625 223.109375 23.546875 220.324219 22.535156 C 217.542969 21.527344 214.730469 20.605469 211.886719 19.777344 C 209.046875 18.945312 206.183594 18.207031 203.292969 17.554688 C 200.40625 16.90625 197.5 16.351562 194.574219 15.886719 C 191.652344 15.421875 188.714844 15.050781 185.769531 14.773438 C 182.820312 14.492188 179.867188 14.308594 176.910156 14.21875 C 173.949219 14.125 170.992188 14.128906 168.03125 14.226562 C 165.074219 14.324219 162.121094 14.515625 159.171875 14.796875 C 156.226562 15.082031 153.292969 15.460938 150.367188 15.929688 C 147.445312 16.402344 144.542969 16.964844 141.652344 17.617188 C 138.765625 18.273438 135.902344 19.019531 133.0625 19.855469 C 130.222656 20.691406 127.414062 21.617188 124.632812 22.632812 C 121.851562 23.648438 119.105469 24.75 116.394531 25.9375 C 113.683594 27.128906 111.011719 28.402344 108.382812 29.761719 C 105.75 31.117188 103.167969 32.558594 100.628906 34.082031 C 98.089844 35.605469 95.601562 37.207031 93.164062 38.886719 C 90.726562 40.566406 88.34375 42.324219 86.019531 44.15625 C 83.695312 45.988281 81.429688 47.890625 79.222656 49.867188 C 77.019531 51.839844 74.878906 53.882812 72.804688 55.996094 C 70.726562 58.105469 68.722656 60.28125 66.785156 62.519531 C 64.847656 64.757812 62.980469 67.054688 61.191406 69.414062 C 59.398438 71.769531 57.683594 74.179688 56.046875 76.648438 C 54.40625 79.113281 52.847656 81.628906 51.371094 84.191406 C 49.890625 86.757812 48.496094 89.367188 47.179688 92.019531 C 45.867188 94.671875 44.640625 97.363281 43.496094 100.09375 C 42.355469 102.828125 41.300781 105.589844 40.332031 108.390625 C 39.367188 111.1875 38.488281 114.011719 37.699219 116.867188 C 36.914062 119.71875 36.214844 122.597656 35.609375 125.492188 C 35.003906 128.390625 34.492188 131.304688 34.074219 134.238281 C 33.652344 137.167969 33.324219 140.109375 33.089844 143.058594 C 32.859375 146.011719 32.71875 148.964844 32.671875 151.925781 C 32.625 154.886719 32.671875 157.84375 32.816406 160.800781 C 32.957031 163.757812 33.191406 166.707031 33.519531 169.652344 C 33.847656 172.59375 34.269531 175.519531 34.785156 178.4375 C 35.300781 181.351562 35.90625 184.25 36.605469 187.125 C 37.304688 190.003906 38.089844 192.855469 38.972656 195.679688 C 39.851562 198.507812 40.820312 201.304688 41.875 204.070312 C 42.933594 206.835938 44.074219 209.5625 45.304688 212.257812 C 46.535156 214.949219 47.847656 217.601562 49.246094 220.210938 C 50.644531 222.820312 52.125 225.382812 53.6875 227.898438 C 55.246094 230.414062 56.886719 232.875 58.601562 235.289062 C 60.320312 237.699219 62.113281 240.054688 63.980469 242.351562 C 65.84375 244.648438 67.78125 246.886719 69.792969 249.0625 C 71.800781 251.234375 73.875 253.34375 76.015625 255.386719 C 78.160156 257.433594 80.363281 259.40625 82.632812 261.308594 C 84.898438 263.210938 87.226562 265.042969 89.609375 266.796875 C 91.992188 268.550781 94.429688 270.230469 96.917969 271.832031 C 99.410156 273.433594 101.949219 274.953125 104.535156 276.394531 C 107.121094 277.832031 109.75 279.191406 112.421875 280.464844 C 115.097656 281.738281 117.808594 282.921875 120.554688 284.023438 C 123.304688 285.125 126.082031 286.140625 128.894531 287.0625 C 131.707031 287.988281 134.546875 288.824219 137.410156 289.566406 C 140.277344 290.3125 143.164062 290.964844 146.070312 291.527344 C 148.976562 292.085938 151.898438 292.554688 154.835938 292.933594 C 157.769531 293.308594 160.714844 293.589844 163.671875 293.78125 C 166.625 293.96875 169.582031 294.066406 172.542969 294.066406 C 175.503906 294.066406 178.460938 293.976562 181.414062 293.789062 C 184.371094 293.601562 187.316406 293.324219 190.253906 292.949219 C 193.191406 292.578125 196.113281 292.109375 199.019531 291.550781 C 201.925781 290.992188 204.8125 290.34375 207.679688 289.601562 C 210.542969 288.859375 213.382812 288.027344 216.199219 287.105469 C 219.011719 286.183594 221.792969 285.175781 224.542969 284.074219 C 227.289062 282.976562 230 281.792969 232.675781 280.523438 C 235.351562 279.25 237.980469 277.898438 240.570312 276.460938 C 243.15625 275.023438 245.695312 273.503906 248.1875 271.90625 C 250.679688 270.308594 253.117188 268.632812 255.503906 266.878906 L 332.574219 368.808594 C 333.109375 369.515625 333.710938 370.167969 334.375 370.757812 C 335.035156 371.351562 335.75 371.871094 336.519531 372.324219 C 337.285156 372.773438 338.085938 373.144531 338.925781 373.4375 C 339.765625 373.730469 340.625 373.9375 341.507812 374.0625 C 342.386719 374.183594 343.273438 374.21875 344.160156 374.167969 C 345.046875 374.117188 345.921875 373.980469 346.78125 373.757812 C 347.640625 373.535156 348.472656 373.230469 349.273438 372.84375 C 350.074219 372.457031 350.828125 371.996094 351.539062 371.460938 C 352.25 370.921875 352.898438 370.324219 353.492188 369.660156 C 354.082031 368.996094 354.601562 368.28125 355.054688 367.515625 C 355.503906 366.75 355.875 365.945312 356.167969 365.105469 C 356.460938 364.265625 356.667969 363.40625 356.792969 362.527344 C 356.914062 361.644531 356.953125 360.761719 356.902344 359.875 C 356.847656 358.988281 356.710938 358.113281 356.488281 357.253906 C 356.265625 356.390625 355.960938 355.5625 355.574219 354.761719 C 355.1875 353.960938 354.726562 353.203125 354.191406 352.496094 Z M 55.335938 154.089844 C 55.335938 152.171875 55.382812 150.253906 55.476562 148.335938 C 55.570312 146.417969 55.710938 144.503906 55.902344 142.589844 C 56.089844 140.679688 56.324219 138.777344 56.605469 136.875 C 56.886719 134.976562 57.214844 133.085938 57.589844 131.203125 C 57.960938 129.320312 58.382812 127.445312 58.847656 125.585938 C 59.316406 123.722656 59.828125 121.871094 60.382812 120.035156 C 60.941406 118.199219 61.542969 116.375 62.191406 114.566406 C 62.835938 112.757812 63.527344 110.96875 64.261719 109.195312 C 64.996094 107.421875 65.773438 105.664062 66.59375 103.929688 C 67.414062 102.195312 68.277344 100.480469 69.183594 98.785156 C 70.085938 97.09375 71.035156 95.421875 72.019531 93.777344 C 73.007812 92.128906 74.035156 90.507812 75.101562 88.910156 C 76.167969 87.3125 77.273438 85.746094 78.414062 84.203125 C 79.558594 82.660156 80.738281 81.148438 81.957031 79.664062 C 83.175781 78.179688 84.429688 76.726562 85.71875 75.300781 C 87.007812 73.878906 88.332031 72.488281 89.6875 71.132812 C 91.046875 69.773438 92.4375 68.449219 93.859375 67.160156 C 95.28125 65.871094 96.734375 64.617188 98.21875 63.398438 C 99.703125 62.179688 101.214844 61 102.757812 59.855469 C 104.300781 58.710938 105.867188 57.605469 107.464844 56.539062 C 109.0625 55.472656 110.683594 54.445312 112.328125 53.457031 C 113.976562 52.472656 115.644531 51.527344 117.339844 50.621094 C 119.03125 49.714844 120.746094 48.851562 122.484375 48.03125 C 124.21875 47.210938 125.972656 46.433594 127.746094 45.695312 C 129.519531 44.960938 131.3125 44.269531 133.117188 43.625 C 134.925781 42.976562 136.75 42.375 138.585938 41.816406 C 140.421875 41.261719 142.273438 40.75 144.136719 40.28125 C 146 39.816406 147.871094 39.394531 149.753906 39.019531 C 151.636719 38.644531 153.527344 38.316406 155.425781 38.035156 C 157.328125 37.753906 159.230469 37.519531 161.140625 37.328125 C 163.054688 37.140625 164.96875 37 166.886719 36.90625 C 168.804688 36.8125 170.722656 36.765625 172.640625 36.765625 C 174.5625 36.765625 176.480469 36.8125 178.398438 36.90625 C 180.316406 37 182.230469 37.140625 184.140625 37.328125 C 186.050781 37.515625 187.957031 37.75 189.855469 38.035156 C 191.753906 38.316406 193.644531 38.644531 195.527344 39.015625 C 197.414062 39.390625 199.285156 39.8125 201.148438 40.277344 C 203.011719 40.746094 204.859375 41.257812 206.695312 41.816406 C 208.535156 42.371094 210.355469 42.972656 212.164062 43.621094 C 213.972656 44.265625 215.761719 44.957031 217.539062 45.691406 C 219.3125 46.425781 221.066406 47.207031 222.800781 48.027344 C 224.535156 48.847656 226.25 49.710938 227.945312 50.613281 C 229.636719 51.519531 231.308594 52.464844 232.953125 53.453125 C 234.601562 54.441406 236.222656 55.46875 237.820312 56.535156 C 239.417969 57.601562 240.984375 58.707031 242.527344 59.847656 C 244.070312 60.992188 245.582031 62.175781 247.066406 63.390625 C 248.550781 64.609375 250.003906 65.863281 251.425781 67.152344 C 252.851562 68.441406 254.238281 69.765625 255.597656 71.125 C 256.957031 72.480469 258.277344 73.871094 259.566406 75.292969 C 260.859375 76.714844 262.113281 78.171875 263.328125 79.652344 C 264.546875 81.136719 265.726562 82.652344 266.871094 84.195312 C 268.015625 85.734375 269.121094 87.304688 270.1875 88.902344 C 271.253906 90.496094 272.28125 92.121094 273.269531 93.765625 C 274.253906 95.414062 275.203125 97.082031 276.105469 98.777344 C 277.011719 100.46875 277.875 102.183594 278.695312 103.921875 C 279.515625 105.65625 280.292969 107.410156 281.027344 109.183594 C 281.761719 110.957031 282.453125 112.75 283.101562 114.554688 C 283.746094 116.363281 284.347656 118.1875 284.90625 120.023438 C 285.464844 121.863281 285.976562 123.710938 286.441406 125.574219 C 286.910156 127.4375 287.328125 129.308594 287.703125 131.191406 C 288.078125 133.074219 288.40625 134.964844 288.6875 136.867188 C 288.96875 138.765625 289.203125 140.667969 289.394531 142.582031 C 289.582031 144.492188 289.722656 146.40625 289.816406 148.324219 C 289.910156 150.242188 289.957031 152.160156 289.957031 154.078125 C 289.957031 156 289.910156 157.917969 289.816406 159.835938 C 289.722656 161.753906 289.578125 163.667969 289.390625 165.578125 C 289.203125 167.488281 288.96875 169.394531 288.6875 171.292969 C 288.40625 173.191406 288.078125 175.085938 287.703125 176.96875 C 287.328125 178.851562 286.90625 180.722656 286.441406 182.585938 C 285.972656 184.449219 285.460938 186.296875 284.902344 188.136719 C 284.347656 189.972656 283.742188 191.792969 283.097656 193.601562 C 282.449219 195.410156 281.757812 197.199219 281.023438 198.972656 C 280.289062 200.75 279.511719 202.503906 278.691406 204.238281 C 277.871094 205.972656 277.007812 207.6875 276.101562 209.382812 C 275.195312 211.074219 274.25 212.746094 273.261719 214.390625 C 272.273438 216.039062 271.25 217.660156 270.179688 219.257812 C 269.113281 220.851562 268.007812 222.421875 266.867188 223.964844 C 265.722656 225.503906 264.539062 227.019531 263.324219 228.503906 C 262.105469 229.988281 260.851562 231.441406 259.5625 232.863281 C 258.269531 234.285156 256.949219 235.675781 255.589844 237.03125 C 254.230469 238.390625 252.84375 239.714844 251.417969 241.003906 C 249.996094 242.292969 248.542969 243.546875 247.058594 244.761719 C 245.574219 245.980469 244.0625 247.164062 242.519531 248.304688 C 240.976562 249.449219 239.40625 250.554688 237.8125 251.621094 C 236.214844 252.6875 234.59375 253.714844 232.945312 254.699219 C 231.296875 255.6875 229.628906 256.632812 227.933594 257.539062 C 226.242188 258.445312 224.527344 259.304688 222.792969 260.125 C 221.054688 260.949219 219.300781 261.726562 217.527344 262.460938 C 215.753906 263.195312 213.960938 263.886719 212.152344 264.53125 C 210.347656 265.179688 208.523438 265.78125 206.6875 266.335938 C 204.847656 266.894531 203 267.40625 201.136719 267.871094 C 199.273438 268.339844 197.402344 268.757812 195.519531 269.132812 C 193.636719 269.507812 191.742188 269.835938 189.84375 270.117188 C 187.945312 270.398438 186.039062 270.632812 184.128906 270.820312 C 182.21875 271.007812 180.304688 271.148438 178.386719 271.242188 C 176.46875 271.335938 174.550781 271.382812 172.628906 271.382812 C 170.710938 271.382812 168.792969 271.335938 166.875 271.242188 C 164.957031 271.148438 163.042969 271.007812 161.132812 270.816406 C 159.222656 270.628906 157.320312 270.394531 155.421875 270.113281 C 153.523438 269.832031 151.632812 269.503906 149.75 269.128906 C 147.867188 268.753906 145.992188 268.332031 144.132812 267.867188 C 142.269531 267.398438 140.421875 266.886719 138.582031 266.328125 C 136.746094 265.773438 134.925781 265.171875 133.117188 264.523438 C 131.308594 263.875 129.519531 263.1875 127.746094 262.453125 C 125.972656 261.714844 124.21875 260.9375 122.484375 260.117188 C 120.75 259.296875 119.035156 258.433594 117.34375 257.53125 C 115.648438 256.625 113.980469 255.679688 112.332031 254.691406 C 110.6875 253.703125 109.066406 252.679688 107.46875 251.613281 C 105.875 250.546875 104.304688 249.441406 102.761719 248.296875 C 101.222656 247.152344 99.707031 245.972656 98.226562 244.753906 C 96.742188 243.535156 95.289062 242.285156 93.867188 240.996094 C 92.445312 239.707031 91.054688 238.382812 89.695312 237.023438 C 88.339844 235.667969 87.015625 234.277344 85.726562 232.855469 C 84.4375 231.433594 83.183594 229.980469 81.964844 228.496094 C 80.75 227.011719 79.566406 225.5 78.425781 223.957031 C 77.28125 222.417969 76.175781 220.847656 75.109375 219.25 C 74.042969 217.65625 73.015625 216.035156 72.03125 214.386719 C 71.042969 212.742188 70.097656 211.070312 69.191406 209.378906 C 68.285156 207.6875 67.425781 205.972656 66.601562 204.238281 C 65.78125 202.503906 65.003906 200.746094 64.269531 198.972656 C 63.535156 197.199219 62.84375 195.410156 62.199219 193.605469 C 61.550781 191.796875 60.949219 189.972656 60.390625 188.136719 C 59.835938 186.300781 59.320312 184.453125 58.855469 182.589844 C 58.390625 180.726562 57.96875 178.855469 57.59375 176.972656 C 57.21875 175.089844 56.890625 173.199219 56.609375 171.300781 C 56.328125 169.402344 56.09375 167.496094 55.902344 165.585938 C 55.714844 163.675781 55.574219 161.761719 55.480469 159.847656 C 55.386719 157.929688 55.335938 156.011719 55.335938 154.089844 Z M 55.335938 154.089844 "/></g></svg>