<svg xmlns="http://www.w3.org/2000/svg" xmlns:xlink="http://www.w3.org/1999/xlink" width="500" zoomAndPan="magnify" viewBox="0 0 375 374.999991" height="500" preserveAspectRatio="xMidYMid meet" version="1.0"><defs><g/></defs><g fill="#ffffff" fill-opacity="1"><g transform="translate(12.667972, 173.999989)"><g><path d="M 1.703125 -0.3125 L 2.140625 -0.3125 C 2.410156 -0.332031 2.742188 -0.382812 3.140625 -0.46875 C 3.535156 -0.5625 3.929688 -0.726562 4.328125 -0.96875 C 4.734375 -1.207031 5.066406 -1.5625 5.328125 -2.03125 C 5.585938 -2.507812 5.71875 -3.132812 5.71875 -3.90625 L 5.71875 -25.390625 C 5.71875 -26.191406 5.578125 -26.820312 5.296875 -27.28125 C 5.023438 -27.75 4.691406 -28.109375 4.296875 -28.359375 C 3.898438 -28.609375 3.5 -28.773438 3.09375 -28.859375 C 2.6875 -28.953125 2.359375 -29 2.109375 -29 L 1.703125 -29 L 1.703125 -29.3125 L 16.421875 -29.3125 C 17.804688 -29.3125 19.128906 -29.207031 20.390625 -29 C 21.660156 -28.800781 22.800781 -28.445312 23.8125 -27.9375 C 24.820312 -27.425781 25.617188 -26.722656 26.203125 -25.828125 C 26.796875 -24.929688 27.09375 -23.800781 27.09375 -22.4375 C 27.09375 -20.945312 26.722656 -19.738281 25.984375 -18.8125 C 25.253906 -17.894531 24.300781 -17.191406 23.125 -16.703125 C 21.945312 -16.222656 20.664062 -15.867188 19.28125 -15.640625 C 20.882812 -15.546875 22.375 -15.222656 23.75 -14.671875 C 25.125 -14.117188 26.234375 -13.289062 27.078125 -12.1875 C 27.929688 -11.09375 28.359375 -9.671875 28.359375 -7.921875 C 28.359375 -6.492188 28.066406 -5.28125 27.484375 -4.28125 C 26.910156 -3.28125 26.125 -2.460938 25.125 -1.828125 C 24.125 -1.203125 22.984375 -0.738281 21.703125 -0.4375 C 20.421875 -0.144531 19.066406 0 17.640625 0 L 1.703125 0 Z M 16.421875 -15.703125 C 17.648438 -15.703125 18.578125 -16.304688 19.203125 -17.515625 C 19.835938 -18.734375 20.15625 -20.375 20.15625 -22.4375 C 20.15625 -24.5 19.835938 -26.109375 19.203125 -27.265625 C 18.578125 -28.421875 17.648438 -29 16.421875 -29 L 12.75 -29 L 12.75 -15.703125 Z M 17.640625 -0.3125 C 18.460938 -0.3125 19.148438 -0.65625 19.703125 -1.34375 C 20.253906 -2.03125 20.675781 -2.953125 20.96875 -4.109375 C 21.269531 -5.265625 21.421875 -6.535156 21.421875 -7.921875 C 21.421875 -9.304688 21.269531 -10.554688 20.96875 -11.671875 C 20.675781 -12.796875 20.253906 -13.691406 19.703125 -14.359375 C 19.148438 -15.035156 18.460938 -15.375 17.640625 -15.375 L 12.75 -15.375 L 12.75 -3.84375 C 12.75 -3.070312 12.878906 -2.445312 13.140625 -1.96875 C 13.398438 -1.5 13.722656 -1.144531 14.109375 -0.90625 C 14.492188 -0.664062 14.875 -0.503906 15.25 -0.421875 C 15.625 -0.347656 15.925781 -0.3125 16.15625 -0.3125 Z M 17.640625 -0.3125 "/></g></g></g><g fill="#ffffff" fill-opacity="1"><g transform="translate(40.680681, 173.999989)"><g><path d="M 17.46875 0.234375 C 16.039062 0.234375 14.625 -0.00390625 13.21875 -0.484375 C 11.820312 -0.972656 10.546875 -1.660156 9.390625 -2.546875 C 8.234375 -3.429688 7.304688 -4.46875 6.609375 -5.65625 C 5.921875 -6.851562 5.578125 -8.140625 5.578125 -9.515625 L 5.578125 -25.390625 C 5.578125 -26.523438 5.234375 -27.410156 4.546875 -28.046875 C 3.867188 -28.679688 2.921875 -29 1.703125 -29 L 1.703125 -29.3125 L 16.359375 -29.3125 L 16.359375 -29 C 15.109375 -29 14.15625 -28.6875 13.5 -28.0625 C 12.84375 -27.4375 12.515625 -26.628906 12.515625 -25.640625 L 12.515625 -12.109375 C 12.515625 -11.128906 12.5625 -10.09375 12.65625 -9 C 12.757812 -7.914062 12.9375 -6.851562 13.1875 -5.8125 C 13.4375 -4.769531 13.800781 -3.820312 14.28125 -2.96875 C 14.757812 -2.125 15.363281 -1.445312 16.09375 -0.9375 C 16.832031 -0.425781 17.734375 -0.171875 18.796875 -0.171875 C 19.453125 -0.171875 20.195312 -0.265625 21.03125 -0.453125 C 21.875 -0.648438 22.726562 -0.960938 23.59375 -1.390625 C 24.457031 -1.828125 25.253906 -2.398438 25.984375 -3.109375 C 26.722656 -3.828125 27.3125 -4.6875 27.75 -5.6875 C 28.195312 -6.695312 28.421875 -7.894531 28.421875 -9.28125 L 28.421875 -25.5625 C 28.421875 -26.632812 28.082031 -27.472656 27.40625 -28.078125 C 26.726562 -28.691406 25.773438 -29 24.546875 -29 L 24.546875 -29.3125 L 32.578125 -29.3125 L 32.578125 -29 C 31.390625 -29 30.453125 -28.691406 29.765625 -28.078125 C 29.078125 -27.472656 28.734375 -26.632812 28.734375 -25.5625 L 28.734375 -9.28125 C 28.734375 -7.175781 28.222656 -5.421875 27.203125 -4.015625 C 26.179688 -2.609375 24.8125 -1.546875 23.09375 -0.828125 C 21.382812 -0.117188 19.507812 0.234375 17.46875 0.234375 Z M 17.46875 0.234375 "/></g></g></g><g fill="#ffffff" fill-opacity="1"><g transform="translate(74.948753, 173.999989)"><g><path d="M 9.828125 -0.3125 C 11.046875 -0.3125 12.019531 -0.640625 12.75 -1.296875 C 13.476562 -1.953125 13.84375 -2.832031 13.84375 -3.9375 L 13.84375 -13.359375 L 6.96875 -25.359375 C 5.613281 -27.691406 3.859375 -28.894531 1.703125 -28.96875 L 1.703125 -29.28125 L 15.5 -29.28125 L 15.5 -28.96875 C 14.257812 -28.945312 13.523438 -28.609375 13.296875 -27.953125 C 13.066406 -27.296875 13.257812 -26.429688 13.875 -25.359375 L 20.703125 -13.53125 L 27.203125 -25.359375 C 27.785156 -26.429688 27.882812 -27.296875 27.5 -27.953125 C 27.113281 -28.609375 26.273438 -28.945312 24.984375 -28.96875 L 24.984375 -29.28125 L 33.046875 -29.28125 L 33.046875 -28.96875 C 31.753906 -28.925781 30.65625 -28.5625 29.75 -27.875 C 28.84375 -27.195312 28.109375 -26.347656 27.546875 -25.328125 L 20.875 -13.15625 L 20.875 -3.9375 C 20.875 -2.832031 21.226562 -1.953125 21.9375 -1.296875 C 22.65625 -0.640625 23.640625 -0.3125 24.890625 -0.3125 L 24.890625 0 L 9.828125 0 Z M 9.828125 -0.3125 "/></g></g></g><g fill="#ffffff" fill-opacity="1"><g transform="translate(130.090434, 173.999989)"><g><path d="M 16.59375 0 C 14.625 0 12.765625 -0.351562 11.015625 -1.0625 C 9.265625 -1.78125 7.707031 -2.785156 6.34375 -4.078125 C 4.988281 -5.367188 3.90625 -6.863281 3.09375 -8.5625 C 2.28125 -10.269531 1.816406 -12.109375 1.703125 -14.078125 L 1.703125 -15.78125 C 1.816406 -17.632812 2.25 -19.375 3 -21 C 3.757812 -22.632812 4.753906 -24.078125 5.984375 -25.328125 L 6.09375 -25.4375 C 7.488281 -26.84375 9.085938 -27.914062 10.890625 -28.65625 C 12.691406 -29.40625 14.59375 -29.78125 16.59375 -29.78125 C 18.332031 -29.78125 20 -29.488281 21.59375 -28.90625 C 23.195312 -28.425781 24.367188 -28.242188 25.109375 -28.359375 C 25.847656 -28.472656 26.25 -28.847656 26.3125 -29.484375 L 26.625 -29.484375 L 26.625 -21.453125 L 26.3125 -21.453125 C 26.269531 -22.703125 25.96875 -23.816406 25.40625 -24.796875 C 24.851562 -25.785156 24.117188 -26.628906 23.203125 -27.328125 C 22.285156 -28.035156 21.257812 -28.570312 20.125 -28.9375 C 18.988281 -29.300781 17.8125 -29.484375 16.59375 -29.484375 C 16.164062 -29.484375 15.617188 -29.390625 14.953125 -29.203125 C 14.296875 -29.023438 13.601562 -28.660156 12.875 -28.109375 C 12.15625 -27.566406 11.472656 -26.757812 10.828125 -25.6875 C 10.179688 -24.613281 9.65625 -23.203125 9.25 -21.453125 C 8.84375 -19.710938 8.640625 -17.523438 8.640625 -14.890625 C 8.640625 -12.285156 8.84375 -10.101562 9.25 -8.34375 C 9.65625 -6.59375 10.179688 -5.175781 10.828125 -4.09375 C 11.472656 -3.019531 12.15625 -2.207031 12.875 -1.65625 C 13.601562 -1.113281 14.296875 -0.753906 14.953125 -0.578125 C 15.617188 -0.398438 16.164062 -0.3125 16.59375 -0.3125 C 18.5 -0.3125 20.175781 -0.703125 21.625 -1.484375 C 23.070312 -2.265625 24.207031 -3.375 25.03125 -4.8125 C 25.863281 -6.25 26.289062 -7.941406 26.3125 -9.890625 L 26.3125 -10.375 L 26.625 -10.375 L 26.625 -0.3125 L 26.3125 -0.3125 C 26.25 -0.988281 25.832031 -1.363281 25.0625 -1.4375 C 24.289062 -1.519531 23.132812 -1.335938 21.59375 -0.890625 C 20 -0.296875 18.332031 0 16.59375 0 Z M 16.59375 0 "/></g></g></g><g fill="#ffffff" fill-opacity="1"><g transform="translate(158.409193, 173.999989)"><g><path d="M 1.703125 -0.3125 C 2.941406 -0.3125 3.921875 -0.632812 4.640625 -1.28125 C 5.359375 -1.925781 5.71875 -2.800781 5.71875 -3.90625 L 5.71875 -25.390625 C 5.71875 -26.523438 5.359375 -27.410156 4.640625 -28.046875 C 3.921875 -28.679688 2.941406 -29 1.703125 -29 L 1.703125 -29.3125 L 16.765625 -29.3125 L 16.765625 -29 C 15.515625 -29 14.53125 -28.679688 13.8125 -28.046875 C 13.101562 -27.410156 12.75 -26.523438 12.75 -25.390625 L 12.75 -14.078125 L 24.375 -14.078125 L 24.375 -25.390625 C 24.375 -26.523438 24.015625 -27.410156 23.296875 -28.046875 C 22.585938 -28.679688 21.609375 -29 20.359375 -29 L 20.359375 -29.3125 L 35.421875 -29.3125 L 35.421875 -29 C 34.179688 -29 33.203125 -28.679688 32.484375 -28.046875 C 31.773438 -27.410156 31.421875 -26.523438 31.421875 -25.390625 L 31.421875 -3.90625 C 31.421875 -2.800781 31.773438 -1.925781 32.484375 -1.28125 C 33.203125 -0.632812 34.179688 -0.3125 35.421875 -0.3125 L 35.421875 0 L 20.359375 0 L 20.359375 -0.3125 C 21.609375 -0.3125 22.585938 -0.632812 23.296875 -1.28125 C 24.015625 -1.925781 24.375 -2.800781 24.375 -3.90625 L 24.375 -13.765625 L 12.75 -13.765625 L 12.75 -3.90625 C 12.75 -2.800781 13.101562 -1.925781 13.8125 -1.28125 C 14.53125 -0.632812 15.515625 -0.3125 16.765625 -0.3125 L 16.765625 0 L 1.703125 0 Z M 1.703125 -0.3125 "/></g></g></g><g fill="#ffffff" fill-opacity="1"><g transform="translate(195.532943, 173.999989)"><g><path d="M 1.703125 -0.3125 C 2.941406 -0.3125 3.921875 -0.632812 4.640625 -1.28125 C 5.359375 -1.925781 5.71875 -2.800781 5.71875 -3.90625 L 5.71875 -25.390625 C 5.71875 -26.523438 5.359375 -27.410156 4.640625 -28.046875 C 3.921875 -28.679688 2.941406 -29 1.703125 -29 L 1.703125 -29.3125 L 24.78125 -29.3125 L 25.9375 -21.765625 L 25.671875 -21.625 L 25.5625 -22.234375 C 25.5 -22.578125 25.359375 -23.03125 25.140625 -23.59375 C 24.921875 -24.164062 24.582031 -24.753906 24.125 -25.359375 C 23.675781 -25.972656 23.070312 -26.554688 22.3125 -27.109375 C 21.5625 -27.671875 20.609375 -28.125 19.453125 -28.46875 C 18.296875 -28.820312 16.890625 -29 15.234375 -29 L 12.78125 -29 L 12.75 -15.53125 L 17.84375 -15.53125 C 18.644531 -15.5625 19.269531 -15.722656 19.71875 -16.015625 C 20.175781 -16.304688 20.515625 -16.664062 20.734375 -17.09375 C 20.960938 -17.53125 21.109375 -17.941406 21.171875 -18.328125 C 21.242188 -18.710938 21.28125 -19.003906 21.28125 -19.203125 L 21.28125 -19.375 L 21.59375 -19.375 L 21.59375 -11.359375 L 21.28125 -11.359375 L 21.28125 -11.53125 C 21.28125 -11.726562 21.242188 -12.019531 21.171875 -12.40625 C 21.109375 -12.789062 20.960938 -13.195312 20.734375 -13.625 C 20.515625 -14.0625 20.175781 -14.429688 19.71875 -14.734375 C 19.269531 -15.046875 18.644531 -15.210938 17.84375 -15.234375 L 12.75 -15.234375 L 12.75 -3.90625 C 12.75 -2.800781 13.101562 -1.925781 13.8125 -1.28125 C 14.53125 -0.632812 15.515625 -0.3125 16.765625 -0.3125 C 19.679688 -0.3125 22.117188 -0.921875 24.078125 -2.140625 C 26.046875 -3.367188 27.4375 -5.21875 28.25 -7.6875 L 28.5625 -7.6875 L 26.3125 0 L 1.703125 0 Z M 1.703125 -0.3125 "/></g></g></g><g fill="#ffffff" fill-opacity="1"><g transform="translate(225.789472, 173.999989)"><g><path d="M 1.703125 -0.3125 L 2.28125 -0.3125 C 2.664062 -0.351562 3.191406 -0.523438 3.859375 -0.828125 C 4.523438 -1.140625 5.253906 -1.71875 6.046875 -2.5625 C 6.835938 -3.414062 7.609375 -4.679688 8.359375 -6.359375 L 15.296875 -21.5625 L 18.796875 -29.3125 L 30.390625 -3.875 C 30.890625 -2.8125 31.46875 -2.023438 32.125 -1.515625 C 32.78125 -1.003906 33.390625 -0.679688 33.953125 -0.546875 C 34.523438 -0.410156 34.925781 -0.332031 35.15625 -0.3125 L 35.328125 -0.3125 L 35.328125 0 L 21.515625 0 L 21.515625 -0.3125 L 21.6875 -0.3125 C 21.875 -0.3125 22.125 -0.347656 22.4375 -0.421875 C 22.757812 -0.503906 23.0625 -0.65625 23.34375 -0.875 C 23.625 -1.101562 23.789062 -1.457031 23.84375 -1.9375 C 23.90625 -2.414062 23.742188 -3.0625 23.359375 -3.875 L 21.109375 -8.8125 L 9.828125 -8.8125 L 8.703125 -6.359375 C 8.179688 -5.222656 7.859375 -4.285156 7.734375 -3.546875 C 7.609375 -2.816406 7.609375 -2.226562 7.734375 -1.78125 C 7.859375 -1.34375 8.050781 -1.019531 8.3125 -0.8125 C 8.570312 -0.613281 8.828125 -0.476562 9.078125 -0.40625 C 9.328125 -0.34375 9.507812 -0.3125 9.625 -0.3125 L 9.71875 -0.3125 L 9.71875 0 L 1.703125 0 Z M 20.984375 -9.109375 L 15.46875 -21.1875 L 9.96875 -9.109375 Z M 20.984375 -9.109375 "/></g></g></g><g fill="#ffffff" fill-opacity="1"><g transform="translate(262.811221, 173.999989)"><g><path d="M 1.734375 -0.3125 C 2.984375 -0.332031 3.957031 -0.660156 4.65625 -1.296875 C 5.363281 -1.929688 5.71875 -2.800781 5.71875 -3.90625 L 5.71875 -25.390625 C 5.71875 -26.191406 5.578125 -26.820312 5.296875 -27.28125 C 5.023438 -27.75 4.691406 -28.109375 4.296875 -28.359375 C 3.898438 -28.609375 3.5 -28.773438 3.09375 -28.859375 C 2.6875 -28.953125 2.359375 -29 2.109375 -29 L 1.703125 -29 L 1.703125 -29.3125 L 16.421875 -29.3125 C 17.804688 -29.3125 19.128906 -29.171875 20.390625 -28.890625 C 21.660156 -28.617188 22.800781 -28.179688 23.8125 -27.578125 C 24.820312 -26.984375 25.617188 -26.203125 26.203125 -25.234375 C 26.796875 -24.273438 27.09375 -23.117188 27.09375 -21.765625 C 27.09375 -20.648438 26.800781 -19.613281 26.21875 -18.65625 C 25.644531 -17.707031 24.894531 -16.882812 23.96875 -16.1875 C 23.039062 -15.5 22.019531 -14.960938 20.90625 -14.578125 C 19.800781 -14.203125 18.710938 -14.015625 17.640625 -14.015625 L 12.75 -14.015625 L 12.75 -3.90625 C 12.75 -2.800781 13.101562 -1.929688 13.8125 -1.296875 C 14.53125 -0.660156 15.515625 -0.332031 16.765625 -0.3125 L 16.765625 0 L 1.703125 0 Z M 16.421875 -14.34375 C 17.234375 -14.34375 17.914062 -14.671875 18.46875 -15.328125 C 19.03125 -15.984375 19.453125 -16.875 19.734375 -18 C 20.015625 -19.125 20.15625 -20.378906 20.15625 -21.765625 C 20.15625 -23.140625 20.015625 -24.367188 19.734375 -25.453125 C 19.453125 -26.546875 19.03125 -27.410156 18.46875 -28.046875 C 17.914062 -28.679688 17.234375 -29 16.421875 -29 L 12.75 -29 L 12.75 -14.34375 Z M 16.421875 -14.34375 "/></g></g></g><g fill="#ffffff" fill-opacity="1"><g transform="translate(289.566063, 173.999989)"><g><path d="M 1.703125 -0.3125 C 2.941406 -0.3125 3.921875 -0.632812 4.640625 -1.28125 C 5.359375 -1.925781 5.71875 -2.800781 5.71875 -3.90625 L 5.71875 -25.390625 C 5.71875 -26.523438 5.359375 -27.410156 4.640625 -28.046875 C 3.921875 -28.679688 2.941406 -29 1.703125 -29 L 1.703125 -29.3125 L 24.78125 -29.3125 L 25.9375 -21.765625 L 25.671875 -21.625 L 25.5625 -22.234375 C 25.5 -22.578125 25.359375 -23.03125 25.140625 -23.59375 C 24.921875 -24.164062 24.582031 -24.753906 24.125 -25.359375 C 23.675781 -25.972656 23.070312 -26.554688 22.3125 -27.109375 C 21.5625 -27.671875 20.609375 -28.125 19.453125 -28.46875 C 18.296875 -28.820312 16.890625 -29 15.234375 -29 L 12.78125 -29 L 12.75 -15.53125 L 17.84375 -15.53125 C 18.644531 -15.5625 19.269531 -15.722656 19.71875 -16.015625 C 20.175781 -16.304688 20.515625 -16.664062 20.734375 -17.09375 C 20.960938 -17.53125 21.109375 -17.941406 21.171875 -18.328125 C 21.242188 -18.710938 21.28125 -19.003906 21.28125 -19.203125 L 21.28125 -19.375 L 21.59375 -19.375 L 21.59375 -11.359375 L 21.28125 -11.359375 L 21.28125 -11.53125 C 21.28125 -11.726562 21.242188 -12.019531 21.171875 -12.40625 C 21.109375 -12.789062 20.960938 -13.195312 20.734375 -13.625 C 20.515625 -14.0625 20.175781 -14.429688 19.71875 -14.734375 C 19.269531 -15.046875 18.644531 -15.210938 17.84375 -15.234375 L 12.75 -15.234375 L 12.75 -3.90625 C 12.75 -2.800781 13.101562 -1.925781 13.8125 -1.28125 C 14.53125 -0.632812 15.515625 -0.3125 16.765625 -0.3125 C 19.679688 -0.3125 22.117188 -0.921875 24.078125 -2.140625 C 26.046875 -3.367188 27.4375 -5.21875 28.25 -7.6875 L 28.5625 -7.6875 L 26.3125 0 L 1.703125 0 Z M 1.703125 -0.3125 "/></g></g></g><g fill="#ffffff" fill-opacity="1"><g transform="translate(318.802672, 173.999989)"><g><path d="M 1.703125 -0.3125 C 2.972656 -0.3125 3.957031 -0.597656 4.65625 -1.171875 C 5.363281 -1.753906 5.71875 -2.664062 5.71875 -3.90625 L 5.71875 -25.390625 C 5.71875 -26.191406 5.578125 -26.820312 5.296875 -27.28125 C 5.023438 -27.75 4.691406 -28.109375 4.296875 -28.359375 C 3.898438 -28.609375 3.5 -28.773438 3.09375 -28.859375 C 2.6875 -28.953125 2.359375 -29 2.109375 -29 L 1.703125 -29 L 1.703125 -29.3125 L 16.421875 -29.3125 C 17.804688 -29.3125 19.128906 -29.171875 20.390625 -28.890625 C 21.660156 -28.617188 22.800781 -28.179688 23.8125 -27.578125 C 24.820312 -26.984375 25.617188 -26.203125 26.203125 -25.234375 C 26.796875 -24.273438 27.09375 -23.117188 27.09375 -21.765625 C 27.09375 -20.265625 26.722656 -19 25.984375 -17.96875 C 25.253906 -16.9375 24.300781 -16.117188 23.125 -15.515625 C 21.945312 -14.921875 20.664062 -14.507812 19.28125 -14.28125 C 20.882812 -14.1875 22.171875 -13.914062 23.140625 -13.46875 C 24.117188 -13.03125 24.925781 -12.316406 25.5625 -11.328125 C 26.195312 -10.347656 26.785156 -8.984375 27.328125 -7.234375 C 27.921875 -5.421875 28.5 -4.007812 29.0625 -3 C 29.632812 -2 30.273438 -1.300781 30.984375 -0.90625 C 31.703125 -0.507812 32.570312 -0.3125 33.59375 -0.3125 L 33.59375 0 L 27.46875 0 C 26.195312 0 24.96875 -0.53125 23.78125 -1.59375 C 22.59375 -2.664062 21.46875 -4.546875 20.40625 -7.234375 C 19.90625 -8.554688 19.535156 -9.648438 19.296875 -10.515625 C 19.054688 -11.390625 18.84375 -12.082031 18.65625 -12.59375 C 18.476562 -13.101562 18.25 -13.46875 17.96875 -13.6875 C 17.6875 -13.90625 17.238281 -14.015625 16.625 -14.015625 L 12.75 -14.015625 L 12.75 -3.84375 C 12.75 -2.644531 13.035156 -1.753906 13.609375 -1.171875 C 14.191406 -0.597656 15.117188 -0.3125 16.390625 -0.3125 L 16.390625 0 L 1.703125 0 Z M 16.421875 -14.34375 C 17.234375 -14.34375 17.914062 -14.671875 18.46875 -15.328125 C 19.03125 -15.984375 19.453125 -16.875 19.734375 -18 C 20.015625 -19.125 20.15625 -20.378906 20.15625 -21.765625 C 20.15625 -23.140625 20.015625 -24.367188 19.734375 -25.453125 C 19.453125 -26.546875 19.03125 -27.410156 18.46875 -28.046875 C 17.914062 -28.679688 17.234375 -29 16.421875 -29 L 12.75 -29 L 12.75 -14.34375 Z M 16.421875 -14.34375 "/></g></g></g><g fill="#ffffff" fill-opacity="1"><g transform="translate(354.090618, 173.999989)"><g><path d="M 2.28125 1.84375 C 3.09375 1.8125 3.644531 1.671875 3.9375 1.421875 C 4.238281 1.171875 4.398438 0.925781 4.421875 0.6875 C 4.441406 0.457031 4.453125 0.34375 4.453125 0.34375 C 4.390625 0.363281 4.320312 0.375 4.25 0.375 C 4.175781 0.375 4.109375 0.375 4.046875 0.375 C 3.410156 0.375 2.859375 0.144531 2.390625 -0.3125 C 1.929688 -0.78125 1.703125 -1.332031 1.703125 -1.96875 C 1.703125 -2.601562 1.929688 -3.148438 2.390625 -3.609375 C 2.859375 -4.078125 3.410156 -4.3125 4.046875 -4.3125 C 4.835938 -4.3125 5.4375 -4.097656 5.84375 -3.671875 C 6.25 -3.242188 6.472656 -2.707031 6.515625 -2.0625 C 6.566406 -1.414062 6.4375 -0.769531 6.125 -0.125 C 5.820312 0.519531 5.347656 1.054688 4.703125 1.484375 C 4.054688 1.921875 3.25 2.140625 2.28125 2.140625 Z M 2.28125 1.84375 "/></g></g></g><g fill="#ffffff" fill-opacity="1"><g transform="translate(12.984379, 221.249985)"><g><path d="M 1.703125 -0.3125 C 2.941406 -0.3125 3.921875 -0.632812 4.640625 -1.28125 C 5.359375 -1.925781 5.71875 -2.800781 5.71875 -3.90625 L 5.71875 -25.390625 C 5.71875 -26.523438 5.359375 -27.410156 4.640625 -28.046875 C 3.921875 -28.679688 2.941406 -29 1.703125 -29 L 1.703125 -29.3125 L 24.8125 -29.3125 L 25.96875 -21.765625 L 25.703125 -21.625 L 25.609375 -22.234375 C 25.535156 -22.578125 25.390625 -23.03125 25.171875 -23.59375 C 24.960938 -24.164062 24.628906 -24.753906 24.171875 -25.359375 C 23.722656 -25.972656 23.117188 -26.554688 22.359375 -27.109375 C 21.597656 -27.671875 20.632812 -28.125 19.46875 -28.46875 C 18.300781 -28.820312 16.890625 -29 15.234375 -29 L 12.78125 -29 L 12.78125 -25.9375 C 12.757812 -25.851562 12.75 -25.765625 12.75 -25.671875 C 12.75 -25.578125 12.75 -25.484375 12.75 -25.390625 L 12.75 -15.53125 L 17.890625 -15.53125 C 18.679688 -15.5625 19.300781 -15.722656 19.75 -16.015625 C 20.207031 -16.304688 20.539062 -16.664062 20.75 -17.09375 C 20.96875 -17.53125 21.113281 -17.941406 21.1875 -18.328125 C 21.269531 -18.710938 21.3125 -19.003906 21.3125 -19.203125 L 21.3125 -19.375 L 21.625 -19.375 L 21.625 -11.359375 L 21.3125 -11.359375 L 21.3125 -11.53125 C 21.3125 -11.726562 21.269531 -12.019531 21.1875 -12.40625 C 21.113281 -12.789062 20.96875 -13.195312 20.75 -13.625 C 20.539062 -14.0625 20.207031 -14.429688 19.75 -14.734375 C 19.300781 -15.046875 18.679688 -15.210938 17.890625 -15.234375 L 12.75 -15.234375 L 12.75 -3.90625 C 12.75 -2.800781 13.101562 -1.925781 13.8125 -1.28125 C 14.53125 -0.632812 15.515625 -0.3125 16.765625 -0.3125 L 16.765625 0 L 1.703125 0 Z M 1.703125 -0.3125 "/></g></g></g><g fill="#ffffff" fill-opacity="1"><g transform="translate(39.637289, 221.249985)"><g><path d="M 1.703125 -0.3125 C 2.941406 -0.3125 3.921875 -0.632812 4.640625 -1.28125 C 5.359375 -1.925781 5.71875 -2.800781 5.71875 -3.90625 L 5.71875 -25.390625 C 5.71875 -26.523438 5.359375 -27.410156 4.640625 -28.046875 C 3.921875 -28.679688 2.941406 -29 1.703125 -29 L 1.703125 -29.3125 L 24.78125 -29.3125 L 25.9375 -21.765625 L 25.671875 -21.625 L 25.5625 -22.234375 C 25.5 -22.578125 25.359375 -23.03125 25.140625 -23.59375 C 24.921875 -24.164062 24.582031 -24.753906 24.125 -25.359375 C 23.675781 -25.972656 23.070312 -26.554688 22.3125 -27.109375 C 21.5625 -27.671875 20.609375 -28.125 19.453125 -28.46875 C 18.296875 -28.820312 16.890625 -29 15.234375 -29 L 12.78125 -29 L 12.75 -15.53125 L 17.84375 -15.53125 C 18.644531 -15.5625 19.269531 -15.722656 19.71875 -16.015625 C 20.175781 -16.304688 20.515625 -16.664062 20.734375 -17.09375 C 20.960938 -17.53125 21.109375 -17.941406 21.171875 -18.328125 C 21.242188 -18.710938 21.28125 -19.003906 21.28125 -19.203125 L 21.28125 -19.375 L 21.59375 -19.375 L 21.59375 -11.359375 L 21.28125 -11.359375 L 21.28125 -11.53125 C 21.28125 -11.726562 21.242188 -12.019531 21.171875 -12.40625 C 21.109375 -12.789062 20.960938 -13.195312 20.734375 -13.625 C 20.515625 -14.0625 20.175781 -14.429688 19.71875 -14.734375 C 19.269531 -15.046875 18.644531 -15.210938 17.84375 -15.234375 L 12.75 -15.234375 L 12.75 -3.90625 C 12.75 -2.800781 13.101562 -1.925781 13.8125 -1.28125 C 14.53125 -0.632812 15.515625 -0.3125 16.765625 -0.3125 C 19.679688 -0.3125 22.117188 -0.921875 24.078125 -2.140625 C 26.046875 -3.367188 27.4375 -5.21875 28.25 -7.6875 L 28.5625 -7.6875 L 26.3125 0 L 1.703125 0 Z M 1.703125 -0.3125 "/></g></g></g><g fill="#ffffff" fill-opacity="1"><g transform="translate(68.873897, 221.249985)"><g><path d="M 1.703125 -0.3125 C 2.941406 -0.3125 3.921875 -0.632812 4.640625 -1.28125 C 5.359375 -1.925781 5.71875 -2.800781 5.71875 -3.90625 L 5.71875 -25.390625 C 5.71875 -26.523438 5.359375 -27.410156 4.640625 -28.046875 C 3.921875 -28.679688 2.941406 -29 1.703125 -29 L 1.703125 -29.3125 L 24.78125 -29.3125 L 25.9375 -21.765625 L 25.671875 -21.625 L 25.5625 -22.234375 C 25.5 -22.578125 25.359375 -23.03125 25.140625 -23.59375 C 24.921875 -24.164062 24.582031 -24.753906 24.125 -25.359375 C 23.675781 -25.972656 23.070312 -26.554688 22.3125 -27.109375 C 21.5625 -27.671875 20.609375 -28.125 19.453125 -28.46875 C 18.296875 -28.820312 16.890625 -29 15.234375 -29 L 12.78125 -29 L 12.75 -15.53125 L 17.84375 -15.53125 C 18.644531 -15.5625 19.269531 -15.722656 19.71875 -16.015625 C 20.175781 -16.304688 20.515625 -16.664062 20.734375 -17.09375 C 20.960938 -17.53125 21.109375 -17.941406 21.171875 -18.328125 C 21.242188 -18.710938 21.28125 -19.003906 21.28125 -19.203125 L 21.28125 -19.375 L 21.59375 -19.375 L 21.59375 -11.359375 L 21.28125 -11.359375 L 21.28125 -11.53125 C 21.28125 -11.726562 21.242188 -12.019531 21.171875 -12.40625 C 21.109375 -12.789062 20.960938 -13.195312 20.734375 -13.625 C 20.515625 -14.0625 20.175781 -14.429688 19.71875 -14.734375 C 19.269531 -15.046875 18.644531 -15.210938 17.84375 -15.234375 L 12.75 -15.234375 L 12.75 -3.90625 C 12.75 -2.800781 13.101562 -1.925781 13.8125 -1.28125 C 14.53125 -0.632812 15.515625 -0.3125 16.765625 -0.3125 C 19.679688 -0.3125 22.117188 -0.921875 24.078125 -2.140625 C 26.046875 -3.367188 27.4375 -5.21875 28.25 -7.6875 L 28.5625 -7.6875 L 26.3125 0 L 1.703125 0 Z M 1.703125 -0.3125 "/></g></g></g><g fill="#ffffff" fill-opacity="1"><g transform="translate(98.110506, 221.249985)"><g><path d="M 1.703125 -0.3125 C 2.941406 -0.3125 3.921875 -0.632812 4.640625 -1.28125 C 5.359375 -1.925781 5.71875 -2.800781 5.71875 -3.90625 L 5.71875 -25.390625 C 5.71875 -26.523438 5.359375 -27.410156 4.640625 -28.046875 C 3.921875 -28.679688 2.941406 -29 1.703125 -29 L 1.703125 -29.3125 L 16.765625 -29.3125 L 16.765625 -29 C 15.515625 -29 14.53125 -28.679688 13.8125 -28.046875 C 13.101562 -27.410156 12.75 -26.523438 12.75 -25.390625 L 12.75 -3.90625 C 12.75 -2.800781 13.101562 -1.925781 13.8125 -1.28125 C 14.53125 -0.632812 15.515625 -0.3125 16.765625 -0.3125 C 19.679688 -0.3125 22.117188 -0.921875 24.078125 -2.140625 C 26.046875 -3.367188 27.4375 -5.21875 28.25 -7.6875 L 28.5625 -7.6875 L 26.3125 0 L 1.703125 0 Z M 1.703125 -0.3125 "/></g></g></g><g fill="#ffffff" fill-opacity="1"><g transform="translate(128.367034, 221.249985)"><g/></g></g><g fill="#ffffff" fill-opacity="1"><g transform="translate(148.764696, 221.249985)"><g><path d="M 1.703125 -0.3125 L 2.140625 -0.3125 C 2.410156 -0.332031 2.742188 -0.382812 3.140625 -0.46875 C 3.535156 -0.5625 3.929688 -0.726562 4.328125 -0.96875 C 4.734375 -1.207031 5.066406 -1.5625 5.328125 -2.03125 C 5.585938 -2.507812 5.71875 -3.132812 5.71875 -3.90625 L 5.71875 -25.390625 C 5.71875 -26.191406 5.578125 -26.820312 5.296875 -27.28125 C 5.023438 -27.75 4.691406 -28.109375 4.296875 -28.359375 C 3.898438 -28.609375 3.5 -28.773438 3.09375 -28.859375 C 2.6875 -28.953125 2.359375 -29 2.109375 -29 L 1.703125 -29 L 1.703125 -29.3125 L 16.421875 -29.3125 C 17.804688 -29.3125 19.128906 -29.207031 20.390625 -29 C 21.660156 -28.800781 22.800781 -28.445312 23.8125 -27.9375 C 24.820312 -27.425781 25.617188 -26.722656 26.203125 -25.828125 C 26.796875 -24.929688 27.09375 -23.800781 27.09375 -22.4375 C 27.09375 -20.945312 26.722656 -19.738281 25.984375 -18.8125 C 25.253906 -17.894531 24.300781 -17.191406 23.125 -16.703125 C 21.945312 -16.222656 20.664062 -15.867188 19.28125 -15.640625 C 20.882812 -15.546875 22.375 -15.222656 23.75 -14.671875 C 25.125 -14.117188 26.234375 -13.289062 27.078125 -12.1875 C 27.929688 -11.09375 28.359375 -9.671875 28.359375 -7.921875 C 28.359375 -6.492188 28.066406 -5.28125 27.484375 -4.28125 C 26.910156 -3.28125 26.125 -2.460938 25.125 -1.828125 C 24.125 -1.203125 22.984375 -0.738281 21.703125 -0.4375 C 20.421875 -0.144531 19.066406 0 17.640625 0 L 1.703125 0 Z M 16.421875 -15.703125 C 17.648438 -15.703125 18.578125 -16.304688 19.203125 -17.515625 C 19.835938 -18.734375 20.15625 -20.375 20.15625 -22.4375 C 20.15625 -24.5 19.835938 -26.109375 19.203125 -27.265625 C 18.578125 -28.421875 17.648438 -29 16.421875 -29 L 12.75 -29 L 12.75 -15.703125 Z M 17.640625 -0.3125 C 18.460938 -0.3125 19.148438 -0.65625 19.703125 -1.34375 C 20.253906 -2.03125 20.675781 -2.953125 20.96875 -4.109375 C 21.269531 -5.265625 21.421875 -6.535156 21.421875 -7.921875 C 21.421875 -9.304688 21.269531 -10.554688 20.96875 -11.671875 C 20.675781 -12.796875 20.253906 -13.691406 19.703125 -14.359375 C 19.148438 -15.035156 18.460938 -15.375 17.640625 -15.375 L 12.75 -15.375 L 12.75 -3.84375 C 12.75 -3.070312 12.878906 -2.445312 13.140625 -1.96875 C 13.398438 -1.5 13.722656 -1.144531 14.109375 -0.90625 C 14.492188 -0.664062 14.875 -0.503906 15.25 -0.421875 C 15.625 -0.347656 15.925781 -0.3125 16.15625 -0.3125 Z M 17.640625 -0.3125 "/></g></g></g><g fill="#ffffff" fill-opacity="1"><g transform="translate(177.457356, 221.249985)"><g><path d="M 1.703125 -0.3125 C 2.941406 -0.3125 3.921875 -0.632812 4.640625 -1.28125 C 5.359375 -1.925781 5.71875 -2.800781 5.71875 -3.90625 L 5.71875 -25.390625 C 5.71875 -26.523438 5.359375 -27.410156 4.640625 -28.046875 C 3.921875 -28.679688 2.941406 -29 1.703125 -29 L 1.703125 -29.3125 L 24.78125 -29.3125 L 25.9375 -21.765625 L 25.671875 -21.625 L 25.5625 -22.234375 C 25.5 -22.578125 25.359375 -23.03125 25.140625 -23.59375 C 24.921875 -24.164062 24.582031 -24.753906 24.125 -25.359375 C 23.675781 -25.972656 23.070312 -26.554688 22.3125 -27.109375 C 21.5625 -27.671875 20.609375 -28.125 19.453125 -28.46875 C 18.296875 -28.820312 16.890625 -29 15.234375 -29 L 12.78125 -29 L 12.75 -15.53125 L 17.84375 -15.53125 C 18.644531 -15.5625 19.269531 -15.722656 19.71875 -16.015625 C 20.175781 -16.304688 20.515625 -16.664062 20.734375 -17.09375 C 20.960938 -17.53125 21.109375 -17.941406 21.171875 -18.328125 C 21.242188 -18.710938 21.28125 -19.003906 21.28125 -19.203125 L 21.28125 -19.375 L 21.59375 -19.375 L 21.59375 -11.359375 L 21.28125 -11.359375 L 21.28125 -11.53125 C 21.28125 -11.726562 21.242188 -12.019531 21.171875 -12.40625 C 21.109375 -12.789062 20.960938 -13.195312 20.734375 -13.625 C 20.515625 -14.0625 20.175781 -14.429688 19.71875 -14.734375 C 19.269531 -15.046875 18.644531 -15.210938 17.84375 -15.234375 L 12.75 -15.234375 L 12.75 -3.90625 C 12.75 -2.800781 13.101562 -1.925781 13.8125 -1.28125 C 14.53125 -0.632812 15.515625 -0.3125 16.765625 -0.3125 C 19.679688 -0.3125 22.117188 -0.921875 24.078125 -2.140625 C 26.046875 -3.367188 27.4375 -5.21875 28.25 -7.6875 L 28.5625 -7.6875 L 26.3125 0 L 1.703125 0 Z M 1.703125 -0.3125 "/></g></g></g><g fill="#ffffff" fill-opacity="1"><g transform="translate(205.334051, 221.249985)"><g><path d="M 8.734375 -0.3125 C 9.984375 -0.3125 10.960938 -0.632812 11.671875 -1.28125 C 12.390625 -1.925781 12.75 -2.800781 12.75 -3.90625 L 12.75 -29 L 12.40625 -29 C 10.75 -29 9.34375 -28.820312 8.1875 -28.46875 C 7.03125 -28.125 6.070312 -27.671875 5.3125 -27.109375 C 4.5625 -26.554688 3.957031 -25.972656 3.5 -25.359375 C 3.050781 -24.753906 2.71875 -24.164062 2.5 -23.59375 C 2.28125 -23.03125 2.140625 -22.578125 2.078125 -22.234375 L 1.96875 -21.625 L 1.703125 -21.765625 L 2.859375 -29.3125 L 29.640625 -29.3125 L 30.796875 -21.765625 L 30.53125 -21.625 L 30.4375 -22.234375 C 30.363281 -22.578125 30.21875 -23.03125 30 -23.59375 C 29.789062 -24.164062 29.457031 -24.753906 29 -25.359375 C 28.550781 -25.972656 27.945312 -26.554688 27.1875 -27.109375 C 26.425781 -27.671875 25.46875 -28.125 24.3125 -28.46875 C 23.15625 -28.820312 21.75 -29 20.09375 -29 L 19.78125 -29 L 19.78125 -3.90625 C 19.78125 -2.800781 20.140625 -1.925781 20.859375 -1.28125 C 21.578125 -0.632812 22.554688 -0.3125 23.796875 -0.3125 L 23.796875 0 L 8.734375 0 Z M 8.734375 -0.3125 "/></g></g></g><g fill="#ffffff" fill-opacity="1"><g transform="translate(237.834332, 221.249985)"><g><path d="M 8.734375 -0.3125 C 9.984375 -0.3125 10.960938 -0.632812 11.671875 -1.28125 C 12.390625 -1.925781 12.75 -2.800781 12.75 -3.90625 L 12.75 -29 L 12.40625 -29 C 10.75 -29 9.34375 -28.820312 8.1875 -28.46875 C 7.03125 -28.125 6.070312 -27.671875 5.3125 -27.109375 C 4.5625 -26.554688 3.957031 -25.972656 3.5 -25.359375 C 3.050781 -24.753906 2.71875 -24.164062 2.5 -23.59375 C 2.28125 -23.03125 2.140625 -22.578125 2.078125 -22.234375 L 1.96875 -21.625 L 1.703125 -21.765625 L 2.859375 -29.3125 L 29.640625 -29.3125 L 30.796875 -21.765625 L 30.53125 -21.625 L 30.4375 -22.234375 C 30.363281 -22.578125 30.21875 -23.03125 30 -23.59375 C 29.789062 -24.164062 29.457031 -24.753906 29 -25.359375 C 28.550781 -25.972656 27.945312 -26.554688 27.1875 -27.109375 C 26.425781 -27.671875 25.46875 -28.125 24.3125 -28.46875 C 23.15625 -28.820312 21.75 -29 20.09375 -29 L 19.78125 -29 L 19.78125 -3.90625 C 19.78125 -2.800781 20.140625 -1.925781 20.859375 -1.28125 C 21.578125 -0.632812 22.554688 -0.3125 23.796875 -0.3125 L 23.796875 0 L 8.734375 0 Z M 8.734375 -0.3125 "/></g></g></g><g fill="#ffffff" fill-opacity="1"><g transform="translate(268.974711, 221.249985)"><g><path d="M 1.703125 -0.3125 C 2.941406 -0.3125 3.921875 -0.632812 4.640625 -1.28125 C 5.359375 -1.925781 5.71875 -2.800781 5.71875 -3.90625 L 5.71875 -25.390625 C 5.71875 -26.523438 5.359375 -27.410156 4.640625 -28.046875 C 3.921875 -28.679688 2.941406 -29 1.703125 -29 L 1.703125 -29.3125 L 24.78125 -29.3125 L 25.9375 -21.765625 L 25.671875 -21.625 L 25.5625 -22.234375 C 25.5 -22.578125 25.359375 -23.03125 25.140625 -23.59375 C 24.921875 -24.164062 24.582031 -24.753906 24.125 -25.359375 C 23.675781 -25.972656 23.070312 -26.554688 22.3125 -27.109375 C 21.5625 -27.671875 20.609375 -28.125 19.453125 -28.46875 C 18.296875 -28.820312 16.890625 -29 15.234375 -29 L 12.78125 -29 L 12.75 -15.53125 L 17.84375 -15.53125 C 18.644531 -15.5625 19.269531 -15.722656 19.71875 -16.015625 C 20.175781 -16.304688 20.515625 -16.664062 20.734375 -17.09375 C 20.960938 -17.53125 21.109375 -17.941406 21.171875 -18.328125 C 21.242188 -18.710938 21.28125 -19.003906 21.28125 -19.203125 L 21.28125 -19.375 L 21.59375 -19.375 L 21.59375 -11.359375 L 21.28125 -11.359375 L 21.28125 -11.53125 C 21.28125 -11.726562 21.242188 -12.019531 21.171875 -12.40625 C 21.109375 -12.789062 20.960938 -13.195312 20.734375 -13.625 C 20.515625 -14.0625 20.175781 -14.429688 19.71875 -14.734375 C 19.269531 -15.046875 18.644531 -15.210938 17.84375 -15.234375 L 12.75 -15.234375 L 12.75 -3.90625 C 12.75 -2.800781 13.101562 -1.925781 13.8125 -1.28125 C 14.53125 -0.632812 15.515625 -0.3125 16.765625 -0.3125 C 19.679688 -0.3125 22.117188 -0.921875 24.078125 -2.140625 C 26.046875 -3.367188 27.4375 -5.21875 28.25 -7.6875 L 28.5625 -7.6875 L 26.3125 0 L 1.703125 0 Z M 1.703125 -0.3125 "/></g></g></g><g fill="#ffffff" fill-opacity="1"><g transform="translate(298.211319, 221.249985)"><g><path d="M 1.703125 -0.3125 C 2.972656 -0.3125 3.957031 -0.597656 4.65625 -1.171875 C 5.363281 -1.753906 5.71875 -2.664062 5.71875 -3.90625 L 5.71875 -25.390625 C 5.71875 -26.191406 5.578125 -26.820312 5.296875 -27.28125 C 5.023438 -27.75 4.691406 -28.109375 4.296875 -28.359375 C 3.898438 -28.609375 3.5 -28.773438 3.09375 -28.859375 C 2.6875 -28.953125 2.359375 -29 2.109375 -29 L 1.703125 -29 L 1.703125 -29.3125 L 16.421875 -29.3125 C 17.804688 -29.3125 19.128906 -29.171875 20.390625 -28.890625 C 21.660156 -28.617188 22.800781 -28.179688 23.8125 -27.578125 C 24.820312 -26.984375 25.617188 -26.203125 26.203125 -25.234375 C 26.796875 -24.273438 27.09375 -23.117188 27.09375 -21.765625 C 27.09375 -20.265625 26.722656 -19 25.984375 -17.96875 C 25.253906 -16.9375 24.300781 -16.117188 23.125 -15.515625 C 21.945312 -14.921875 20.664062 -14.507812 19.28125 -14.28125 C 20.882812 -14.1875 22.171875 -13.914062 23.140625 -13.46875 C 24.117188 -13.03125 24.925781 -12.316406 25.5625 -11.328125 C 26.195312 -10.347656 26.785156 -8.984375 27.328125 -7.234375 C 27.921875 -5.421875 28.5 -4.007812 29.0625 -3 C 29.632812 -2 30.273438 -1.300781 30.984375 -0.90625 C 31.703125 -0.507812 32.570312 -0.3125 33.59375 -0.3125 L 33.59375 0 L 27.46875 0 C 26.195312 0 24.96875 -0.53125 23.78125 -1.59375 C 22.59375 -2.664062 21.46875 -4.546875 20.40625 -7.234375 C 19.90625 -8.554688 19.535156 -9.648438 19.296875 -10.515625 C 19.054688 -11.390625 18.84375 -12.082031 18.65625 -12.59375 C 18.476562 -13.101562 18.25 -13.46875 17.96875 -13.6875 C 17.6875 -13.90625 17.238281 -14.015625 16.625 -14.015625 L 12.75 -14.015625 L 12.75 -3.84375 C 12.75 -2.644531 13.035156 -1.753906 13.609375 -1.171875 C 14.191406 -0.597656 15.117188 -0.3125 16.390625 -0.3125 L 16.390625 0 L 1.703125 0 Z M 16.421875 -14.34375 C 17.234375 -14.34375 17.914062 -14.671875 18.46875 -15.328125 C 19.03125 -15.984375 19.453125 -16.875 19.734375 -18 C 20.015625 -19.125 20.15625 -20.378906 20.15625 -21.765625 C 20.15625 -23.140625 20.015625 -24.367188 19.734375 -25.453125 C 19.453125 -26.546875 19.03125 -27.410156 18.46875 -28.046875 C 17.914062 -28.679688 17.234375 -29 16.421875 -29 L 12.75 -29 L 12.75 -14.34375 Z M 16.421875 -14.34375 "/></g></g></g><g fill="#ffffff" fill-opacity="1"><g transform="translate(333.499265, 221.249985)"><g><path d="M 4.046875 0.34375 C 3.410156 0.34375 2.859375 0.113281 2.390625 -0.34375 C 1.929688 -0.8125 1.703125 -1.363281 1.703125 -2 C 1.703125 -2.632812 1.929688 -3.1875 2.390625 -3.65625 C 2.859375 -4.125 3.410156 -4.359375 4.046875 -4.359375 C 4.679688 -4.359375 5.226562 -4.125 5.6875 -3.65625 C 6.15625 -3.1875 6.390625 -2.632812 6.390625 -2 C 6.390625 -1.363281 6.15625 -0.8125 5.6875 -0.34375 C 5.226562 0.113281 4.679688 0.34375 4.046875 0.34375 Z M 4.046875 0.34375 "/></g></g></g><g fill="#ffffff" fill-opacity="1"><g transform="translate(341.601545, 221.249985)"><g/></g></g></svg>