<svg xmlns="http://www.w3.org/2000/svg" xmlns:xlink="http://www.w3.org/1999/xlink" width="500" zoomAndPan="magnify" viewBox="0 0 375 374.999991" height="500" preserveAspectRatio="xMidYMid meet" version="1.2"><defs/><g id="2673427962"><g style="fill:#cbc09f;fill-opacity:1;"><g transform="translate(-11.908281, 360.619027)"><path style="stroke:none" d="M 200.597656 -258.824219 C 200.199219 -257.628906 199.402344 -257.628906 199.003906 -258.824219 C 180.261719 -303.492188 145.960938 -318.246094 114.855469 -318.246094 C 68.992188 -318.246094 31.105469 -276.371094 31.105469 -221.734375 C 31.105469 -162.710938 78.566406 -120.039062 108.875 -90.925781 C 145.164062 -56.230469 184.246094 -8.375 199.003906 15.554688 C 199.402344 16.351562 200.199219 16.351562 200.597656 15.554688 C 215.355469 -8.375 254.4375 -56.230469 290.730469 -90.925781 C 321.039062 -120.039062 368.496094 -162.3125 368.496094 -221.734375 C 368.496094 -276.371094 330.609375 -318.246094 284.746094 -318.246094 C 253.640625 -318.246094 218.546875 -303.492188 200.597656 -258.824219 Z M 353.738281 -221.734375 C 353.738281 -170.289062 308.675781 -128.8125 280.757812 -101.296875 C 246.0625 -68.992188 214.957031 -32.304688 200.597656 -9.570312 C 200.199219 -8.773438 199.402344 -8.773438 199.003906 -9.570312 C 184.648438 -32.304688 153.539062 -68.992188 119.242188 -101.296875 C 90.925781 -128.414062 45.863281 -170.6875 45.863281 -221.734375 C 45.863281 -268.394531 77.367188 -303.890625 114.855469 -303.890625 C 149.550781 -303.890625 172.285156 -285.542969 189.035156 -245.664062 C 191.824219 -238.882812 195.414062 -235.296875 199.800781 -235.296875 C 204.1875 -235.296875 207.777344 -238.882812 210.570312 -245.664062 C 227.320312 -285.542969 250.050781 -303.890625 284.746094 -303.890625 C 322.234375 -303.890625 353.738281 -268.394531 353.738281 -221.734375 Z M 353.738281 -221.734375 "/></g></g></g></svg>